<svg xmlns="http://www.w3.org/2000/svg" viewBox="0 0 1024 1024">
<rect width="1024" height="1024" rx="232" fill="#17181C"/>
<path d="M 278 128 L 164 128 Q 128 128 128 164 L 128 278" fill="none" stroke="#FFB520" stroke-width="40" stroke-linecap="round"/>
<path d="M 746 128 L 860 128 Q 896 128 896 164 L 896 278" fill="none" stroke="#FFB520" stroke-width="40" stroke-linecap="round"/>
<path d="M 746 896 L 860 896 Q 896 896 896 860 L 896 746" fill="none" stroke="#FFB520" stroke-width="40" stroke-linecap="round"/>
<path d="M 278 896 L 164 896 Q 128 896 128 860 L 128 746" fill="none" stroke="#FFB520" stroke-width="40" stroke-linecap="round"/>
<g transform="translate(205,247) scale(0.6)">
<path d="M0 0 C0.78 -0.01 1.55 -0.01 2.35 -0.02 C3.99 -0.03 5.63 -0.03 7.26 -0.03 C9.72 -0.04 12.17 -0.08 14.62 -0.11 C25.02 -0.19 33.85 1.11 43.75 4.34 C44.52 4.57 45.3 4.8 46.09 5.04 C61.3 9.6 75.17 16.25 88.75 24.34 C89.62 24.85 90.48 25.37 91.38 25.9 C94.18 27.57 96.97 29.26 99.75 30.96 C100.62 31.49 101.49 32.01 102.39 32.55 C107.33 35.6 111.7 38.86 115.99 42.76 C118.24 44.77 120.64 46.49 123.12 48.21 C127.85 51.59 132.16 55.25 136.43 59.2 C138.46 61.06 140.52 62.86 142.62 64.65 C151.9 72.76 160.21 81.6 167.75 91.34 C168.16 91.87 168.58 92.4 169.01 92.95 C176.75 102.92 176.75 102.92 176.75 105.34 C177.41 105.34 178.07 105.34 178.75 105.34 C179.69 107 180.64 108.66 181.58 110.32 C182.94 112.67 184.34 115 185.75 117.34 C185.18 108.99 184.55 100.66 183.75 92.34 C189.64 92.93 191.78 96.21 195.48 100.51 C198.22 103.92 200.76 107.42 203.2 111.05 C204.49 112.96 205.84 114.77 207.25 116.59 C220.04 134.37 226.02 157.1 229.75 178.34 C230.55 174.11 230.87 170.14 230.85 165.84 C230.85 165.24 230.85 165.24 230.84 162.21 C230.83 160.97 230.82 159.74 230.81 158.46 C230.81 157.83 230.81 157.83 230.8 154.64 C230.79 151.54 230.77 148.44 230.75 145.34 C235.39 146.14 236.9 148.68 239.75 152.34 C240.23 152.79 240.7 153.24 241.2 153.71 C247.01 159.79 250.29 168.14 253.06 175.96 C253.3 176.64 253.55 177.32 253.8 178.02 C257.2 188.05 258.03 197.39 257.88 207.96 C257.87 209.16 257.86 210.35 257.85 211.58 C257.82 214.5 257.79 217.42 257.75 220.34 C260.98 215.6 264.14 210.95 266.62 205.77 C267.03 204.93 267.44 204.08 267.87 203.21 C268.01 202.9 268.01 202.9 268.75 201.34 C270.07 201.67 271.39 202 272.75 202.34 C277.5 218.85 278.26 233.79 272.75 250.34 C278.5 247.71 278.5 247.71 280.75 244.34 C281.74 244.34 282.73 244.34 283.75 244.34 C284.3 252.62 282.47 259.89 278.75 267.34 C278.09 267.34 277.43 267.34 276.75 267.34 C276.75 268 276.75 268.66 276.75 269.34 C277.52 269.08 278.28 268.82 279.08 268.56 C304.1 260.48 332.18 256.7 357.88 263.15 C367.53 265.56 374.49 264.95 384.02 262.39 C400.27 258.13 417.36 259.52 433.67 262.91 C435.8 263.35 437.92 263.73 440.06 264.1 C447.45 265.39 454.64 266.93 461.75 269.34 C461.42 268.02 461.09 266.7 460.75 265.34 C460.09 265.34 459.43 265.34 458.75 265.34 C455.69 258.64 454.06 252.7 453.75 245.34 C458.12 245.34 458.75 245.74 462 248.34 C462.35 248.61 462.35 248.61 464.14 250.02 C464.67 250.46 465.2 250.89 465.75 251.34 C465.46 250.4 465.17 249.47 464.88 248.5 C460.17 232.29 460.39 217.35 465.75 201.34 C467.07 201.34 468.39 201.34 469.75 201.34 C470.14 202.13 470.52 202.93 470.92 203.75 C475.7 213.47 475.7 213.47 478.12 216.96 C479.75 219.34 479.75 219.34 479.75 221.34 C480.41 221.34 481.07 221.34 481.75 221.34 C481.42 220.68 481.09 220.02 480.75 219.34 C478.83 195.44 484 173.09 497.75 153.34 C499.37 151.63 501.03 149.95 502.75 148.34 C503.31 147.74 503.86 147.14 504.44 146.52 C505.75 145.34 505.75 145.34 507.75 145.34 C507.76 145.77 507.76 145.77 507.83 147.95 C507.92 151.15 508.02 154.36 508.12 157.56 C508.17 158.95 508.21 160.33 508.25 161.72 C508.31 163.71 508.37 165.71 508.43 167.7 C508.47 168.9 508.51 170.1 508.54 171.33 C508.75 174.34 508.75 174.34 509.75 177.34 C509.87 176.76 509.87 176.76 510.45 173.86 C512.44 164.27 514.94 155.38 518.75 146.34 C519.06 145.51 519.36 144.69 519.68 143.84 C526.55 125.36 538.9 104.45 554.75 92.34 C555.74 92.34 556.73 92.34 557.75 92.34 C557.61 93.47 557.46 94.6 557.31 95.77 C557.12 97.29 556.94 98.82 556.75 100.34 C556.65 101.08 556.56 101.82 556.46 102.59 C555.86 107.54 555.66 112.34 555.75 117.34 C556.05 116.87 556.05 116.87 557.54 114.52 C566.55 100.41 566.55 100.41 569.75 96.34 C570.41 96.34 571.07 96.34 571.75 96.34 C572.04 95.76 572.33 95.18 572.62 94.59 C573 93.84 573.37 93.1 573.75 92.34 C574 91.7 574.25 91.06 574.5 90.4 C575.97 87.97 577.86 86.54 580.07 84.79 C581.85 83.25 583.31 81.61 584.82 79.81 C595.38 67.6 606.97 55.63 620.16 46.27 C622.75 44.34 622.75 44.34 625.19 41.88 C627.99 39.1 631 36.9 634.25 34.71 C634.81 34.33 635.36 33.95 635.93 33.55 C645.05 27.34 645.05 27.34 647.75 27.34 C647.75 26.68 647.75 26.02 647.75 25.34 C650.54 23.83 653.33 22.33 656.12 20.84 C656.92 20.41 657.71 19.98 658.53 19.54 C659.29 19.13 660.05 18.72 660.84 18.3 C661.54 17.93 662.24 17.55 662.96 17.16 C664.75 16.34 664.75 16.34 666.75 16.34 C666.75 15.68 666.75 15.02 666.75 14.34 C667.61 14.01 668.46 13.68 669.35 13.35 C670.49 12.91 671.63 12.47 672.81 12.02 C673.38 11.81 673.38 11.81 676.22 10.72 C678.54 9.81 680.84 8.86 683.12 7.87 C698.12 1.54 712.47 -0.29 728.62 -0.41 C729.45 -0.43 730.28 -0.44 731.13 -0.46 C746.92 -0.69 760.76 2.89 773.75 12.34 C774.27 12.87 774.79 13.4 775.32 13.95 C776.75 15.34 776.75 15.34 779.75 16.34 C781.57 18.11 781.57 18.11 783.44 20.27 C784.06 20.98 784.68 21.69 785.32 22.43 C786.75 24.34 786.75 24.34 786.75 26.34 C787.41 26.34 788.07 26.34 788.75 26.34 C788.75 27 788.75 27.66 788.75 28.34 C789.41 28.34 790.07 28.34 790.75 28.34 C806.41 48.21 813.82 77.2 813.99 102.03 C814 103.17 814 104.32 814.01 105.49 C814.03 107.92 814.04 110.34 814.05 112.76 C814.06 115.2 814.08 117.64 814.11 120.09 C814.28 134.53 813.76 148.03 810.29 162.08 C809.32 166.14 808.54 170.24 807.75 174.34 C809.65 172.92 811.54 171.5 813.44 170.09 C814.49 169.3 815.55 168.51 816.64 167.7 C818.62 166.19 820.56 164.65 822.46 163.04 C824.75 161.34 824.75 161.34 827.75 161.34 C828.57 189.07 828.57 189.07 823.75 202.34 C823.46 203.27 823.17 204.19 822.88 205.15 C818.55 218.42 810.9 230.14 802.75 241.34 C809.61 238.94 815.41 235.83 821.4 231.73 C823.75 230.34 823.75 230.34 826.75 230.34 C827.78 247.05 822.89 262.15 814.81 276.65 C814.65 276.94 814.65 276.94 813.83 278.43 C811.58 282.34 809.03 285.26 805.75 288.34 C804.82 289.27 803.89 290.2 802.93 291.16 C792.5 301.59 792.5 301.59 787.75 303.34 C787.75 304 787.75 304.66 787.75 305.34 C796.3 303.86 804.59 302.4 812.75 299.34 C814.5 301.08 814 303.4 814.06 305.77 C813.89 320.26 804.44 331.34 794.75 341.34 C790.26 345.34 790.26 345.34 787.75 345.34 C787.75 346 787.75 346.66 787.75 347.34 C785.44 348 783.13 348.66 780.75 349.34 C780.75 350 780.75 350.66 780.75 351.34 C778.77 352.33 776.79 353.32 774.75 354.34 C777.9 354.37 781.04 354.38 784.19 354.4 C785.07 354.41 785.94 354.42 786.85 354.42 C792.57 354.44 798.08 354.07 803.75 353.34 C805.53 359.27 802.4 364.02 799.75 369.34 C795.96 375.81 790.83 380.06 784.75 384.34 C783.95 384.93 783.14 385.53 782.31 386.15 C778.31 388 774.08 388.62 769.75 389.34 C769.75 390 769.75 390.66 769.75 391.34 C770.78 391.42 771.81 391.51 772.88 391.59 C780.37 393.03 786.32 398.29 791.01 404.17 C795.83 411.54 798.05 417.56 797.75 426.34 C793.98 427.59 791.72 426.95 787.81 426.27 C778.69 424.87 770.4 425.97 761.75 429.34 C761.75 430 761.75 430.66 761.75 431.34 C762.17 431.44 762.17 431.44 764.31 431.96 C772.6 435.28 778.59 442.6 782.75 450.34 C785.35 457.6 787.21 465.61 786.75 473.34 C786.42 474 786.09 474.66 785.75 475.34 C782.35 474.62 779.41 473.33 776.25 471.9 C767.62 468.26 759.07 466.98 749.75 467.34 C749.75 468 749.75 468.66 749.75 469.34 C750.03 469.45 750.03 469.45 751.44 470.02 C757.94 473.72 761.23 479.99 764.75 486.34 C765.12 486.93 765.48 487.53 765.86 488.14 C768.44 494.5 767.93 502.02 767.94 508.77 C767.95 509.66 767.96 510.55 767.97 511.47 C767.99 518.49 767.73 525.37 763.75 531.34 C763.09 531.34 762.43 531.34 761.75 531.34 C760.53 529.84 760.53 529.84 759.25 527.9 C756.96 524.44 756.96 524.44 754.75 523.34 C754.75 522.35 754.75 521.36 754.75 520.34 C753.76 520.34 752.77 520.34 751.75 520.34 C751.02 519.59 750.29 518.84 749.53 518.07 C746.32 514.92 743.31 513.38 739.25 511.59 C738.92 511.43 738.92 511.43 737.28 510.67 C733.8 509.09 730.53 507.89 726.75 507.34 C727.2 507.8 727.64 508.26 728.11 508.73 C737.16 518.5 742.4 530.65 741.99 544.1 C741.68 547.03 740.89 549.62 739.75 552.34 C739.09 552.34 738.43 552.34 737.75 552.34 C737.75 551.68 737.75 551.02 737.75 550.34 C737.15 550.09 736.55 549.84 735.94 549.59 C733.45 548.17 732.44 546.61 730.75 544.34 C729.76 544.01 728.77 543.68 727.75 543.34 C727.46 543.02 727.46 543.02 725.96 541.45 C723.27 538.88 720.79 537.89 717.31 536.59 C716.2 536.16 715.09 535.73 713.94 535.29 C710.99 534.41 708.8 534.13 705.75 534.34 C706.11 534.85 706.48 535.36 706.85 535.89 C717.07 551.45 722.36 572.58 718.75 590.96 C718.43 592.42 718.1 593.88 717.75 595.34 C714.46 593.94 712.79 592.4 710.62 589.59 C705.75 583.8 699.45 580.63 692.75 577.34 C693.03 578.16 693.3 578.98 693.59 579.83 C697.31 591.28 697.92 601.35 697.75 613.34 C693.52 612.03 689.68 610.39 685.75 608.34 C688.44 617.22 691.28 626.06 694.31 634.84 C694.45 635.25 694.45 635.25 695.16 637.33 C696.55 641.3 698.05 645.06 699.96 648.8 C701.75 652.34 701.75 652.34 701.75 654.34 C702.41 654.34 703.07 654.34 703.75 654.34 C704.18 655.28 704.62 656.23 705.06 657.21 C706.75 660.34 706.75 660.34 709.75 662.34 C709.75 663 709.75 663.66 709.75 664.34 C710.49 664.62 711.24 664.91 712 665.21 C714.32 666.16 716.53 667.18 718.75 668.34 C712.76 674.87 707.44 677.83 698.55 678.39 C694.39 678.31 690.76 677.45 686.75 676.34 C686.75 677.33 686.75 678.32 686.75 679.34 C687.41 679.34 688.07 679.34 688.75 679.34 C689.08 680.99 689.41 682.64 689.75 684.34 C690.41 684.34 691.07 684.34 691.75 684.34 C693.27 685.91 693.27 685.91 695 688.02 C698.97 692.69 703 696.9 708.75 699.34 C708.75 700 708.75 700.66 708.75 701.34 C711.39 702 714.03 702.66 716.75 703.34 C715.47 708.47 713.72 709.19 709.4 711.88 C699.19 717.5 688.26 719.59 676.75 717.34 C683.24 728.43 688.52 734.15 700.75 738.34 C700.75 741.34 700.75 741.34 699.29 742.94 C698.66 743.46 698.03 743.99 697.38 744.52 C696.75 745.05 696.12 745.58 695.48 746.13 C693.75 747.34 693.75 747.34 691.75 747.34 C691.75 748 691.75 748.66 691.75 749.34 C689.69 750.15 687.63 750.96 685.56 751.77 C684.41 752.23 683.27 752.68 682.08 753.14 C676.59 755.11 671.74 755.47 665.94 755.4 C665.24 755.39 664.55 755.39 663.84 755.38 C662.14 755.37 660.45 755.36 658.75 755.34 C664.77 763.14 671.21 767.64 680.75 770.34 C677.8 777.36 670.32 780.28 663.62 783.02 C656.48 785.65 649.24 787.06 641.75 788.34 C642.26 788.66 642.76 788.99 643.28 789.32 C643.93 789.76 644.58 790.2 645.25 790.65 C645.9 791.08 646.55 791.51 647.22 791.95 C647.72 792.41 648.23 792.86 648.75 793.34 C648.75 794.33 648.75 795.32 648.75 796.34 C648.3 796.42 648.3 796.42 646.04 796.85 C638.55 798.35 631.71 800.2 624.75 803.34 C623.72 803.71 622.69 804.08 621.62 804.46 C617.92 806.88 615.81 809.89 613.14 813.38 C605.72 822.55 596.89 831.22 586.75 837.34 C586.09 837.34 585.43 837.34 584.75 837.34 C584.75 838 584.75 838.66 584.75 839.34 C581.48 841.15 578.21 842.96 574.94 844.77 C574.01 845.29 573.08 845.81 572.12 846.34 C571.23 846.83 570.34 847.32 569.42 847.83 C569.01 848.06 569.01 848.06 566.93 849.21 C564.75 850.34 564.75 850.34 561.75 851.34 C564.72 852.66 567.69 853.98 570.75 855.34 C568.91 859.01 568.39 859.93 565.25 862.09 C564.64 862.51 564.03 862.94 563.41 863.38 C561.75 864.34 561.75 864.34 559.75 864.34 C559.75 865 559.75 865.66 559.75 866.34 C548.76 871.63 538.85 875.43 526.75 877.34 C524.93 877.72 523.12 878.11 521.31 878.52 C520.14 878.79 518.96 879.06 517.75 879.34 C518.74 880.1 519.73 880.86 520.75 881.65 C522.44 882.95 522.44 882.95 523.75 884.34 C523.75 885.33 523.75 886.32 523.75 887.34 C519.5 887.89 515.25 888.44 511 888.99 C509.56 889.18 508.12 889.36 506.67 889.55 C505.27 889.73 503.87 889.91 502.47 890.1 C501.1 890.27 499.72 890.45 498.34 890.64 C494.96 891.07 491.6 891.44 488.21 891.7 C482.13 892.36 476.27 894.26 470.43 895.98 C468.39 896.58 466.34 897.16 464.3 897.75 C457.3 899.77 450.62 902.06 444.06 905.28 C440.7 906.81 437.36 907.59 433.75 908.34 C433.42 906.69 433.09 905.04 432.75 903.34 C431.66 903.88 430.58 904.42 429.46 904.98 C420.84 909.29 420.84 909.29 418.7 910.35 C417.08 911.17 415.49 912.03 413.89 912.9 C389.38 924.11 355.4 924.36 330.17 915.29 C324.98 913.24 320 910.87 315.12 908.17 C311.72 906.32 308.33 904.81 304.75 903.34 C304.75 904.66 304.75 905.98 304.75 907.34 C299.04 906.84 294.53 905.61 289.31 903.21 C269.18 894.57 248.52 891.02 226.91 888.68 C223.19 888.27 219.47 887.81 215.75 887.34 C215.75 886.02 215.75 884.7 215.75 883.34 C216.41 883.34 217.07 883.34 217.75 883.34 C218.08 882.35 218.41 881.36 218.75 880.34 C219.41 880.01 220.07 879.68 220.75 879.34 C220.09 879.21 219.42 879.09 218.74 878.96 C202.45 875.84 188.77 872.48 174.75 863.34 C174.03 862.88 173.31 862.42 172.57 861.95 C170.62 860.65 170.62 860.65 167.75 858.34 C167.75 857.35 167.75 856.36 167.75 855.34 C170.39 854.02 173.03 852.7 175.75 851.34 C174.71 850.84 173.67 850.34 172.6 849.83 C165.22 846.25 158.24 842.65 151.67 837.68 C149.75 836.34 149.75 836.34 146.75 835.34 C145.05 833.7 143.39 832.03 141.75 830.34 C139.84 828.6 137.92 826.87 136 825.15 C121.72 812.17 121.72 812.17 119.82 806.61 C119.64 806.23 119.64 806.23 118.75 804.34 C116.54 803.68 116.54 803.68 113.75 803.34 C111.51 802.55 109.28 801.74 107.06 800.9 C101.33 798.81 95.77 797.27 89.75 796.34 C89.75 795.02 89.75 793.7 89.75 792.34 C92.06 791.02 94.37 789.7 96.75 788.34 C95.57 788.09 94.38 787.85 93.16 787.6 C81.16 785.08 69.31 782.58 59.75 774.34 C58.5 772.15 58.5 772.15 57.75 770.34 C58.37 770.13 58.98 769.92 59.62 769.71 C67.8 766.73 74.69 762.56 79.75 755.34 C79.24 755.35 79.24 755.35 76.64 755.44 C64.07 755.74 51.57 754.57 41.88 745.71 C41.17 744.93 40.47 744.14 39.75 743.34 C39.09 742.68 38.43 742.02 37.75 741.34 C37.86 739.3 37.86 739.3 38.75 737.34 C40.61 736.46 40.61 736.46 42.94 735.9 C52.38 733.05 55.92 726.5 60.75 718.34 C59.95 718.37 59.15 718.41 58.33 718.44 C45.36 718.76 33.19 716.34 22.94 707.84 C21.75 706.34 21.75 706.34 21.75 703.34 C22.54 702.97 23.32 702.61 24.13 702.23 C35.38 696.85 42.42 690.51 49.75 680.34 C49.75 679.68 49.75 679.02 49.75 678.34 C50.41 678.34 51.07 678.34 51.75 678.34 C51.75 677.68 51.75 677.02 51.75 676.34 C50.49 676.69 49.23 677.04 47.94 677.4 C39.19 679.31 31.3 678.13 23.75 673.34 C21.25 671.59 21.25 671.59 19.75 670.34 C20.91 666.86 21.37 666.74 24.44 665.09 C35.35 658.47 40.89 645.73 44.07 633.75 C44.82 631.09 45.76 628.55 46.75 625.96 C48.89 620.2 50.37 614.32 51.75 608.34 C51.14 608.7 50.52 609.06 49.89 609.43 C49.08 609.89 48.27 610.36 47.44 610.84 C46.64 611.3 45.84 611.76 45.01 612.24 C42.75 613.34 42.75 613.34 39.75 613.34 C39.6 606.62 40.14 600.28 41.12 593.65 C41.25 592.74 41.38 591.83 41.51 590.89 C42.19 586.17 43.04 581.81 44.75 577.34 C36.58 581.85 30.41 586.1 24.46 593.43 C23.89 594.06 23.33 594.69 22.75 595.34 C22.09 595.34 21.43 595.34 20.75 595.34 C14.64 577.01 20.73 557.34 28.94 540.71 C31.58 535.51 31.58 535.51 32.75 534.34 C26.32 534.91 20.75 537.04 14.75 539.34 C13.76 539.67 12.77 540 11.75 540.34 C11.75 541 11.75 541.66 11.75 542.34 C11.05 542.73 10.35 543.12 9.62 543.52 C6.36 545.58 4.5 547.88 2.18 550.91 C0.75 552.34 0.75 552.34 -2.25 552.34 C-5.82 541.62 -2.9 530.19 1.75 520.34 C4.28 515.84 7.02 511.9 10.75 508.34 C0.26 509.37 -9.9 514.82 -17.25 522.34 C-17.58 523.33 -17.91 524.32 -18.25 525.34 C-19.56 526.69 -20.9 528.02 -22.25 529.34 C-22.58 530 -22.91 530.66 -23.25 531.34 C-26.25 530.34 -26.25 530.34 -27.37 528.16 C-29.84 520.25 -30.87 511.61 -30.25 503.34 C-30.18 502.35 -30.11 501.37 -30.04 500.35 C-28.58 486.93 -22.27 477.13 -12.25 468.34 C-23.04 466.32 -32.63 468.96 -42.13 474.25 C-44.18 475.3 -46 475.88 -48.25 476.34 C-48.73 462.17 -45.86 450.15 -36.25 439.34 C-27.91 431.34 -27.91 431.34 -23.25 431.34 C-23.25 430.68 -23.25 430.02 -23.25 429.34 C-34.49 425.82 -44.34 424.55 -55.95 426.96 C-56.71 427.08 -57.47 427.21 -58.25 427.34 C-59.25 426.34 -59.25 426.34 -59.5 422.77 C-59.33 414.01 -54.91 406.82 -49.25 400.34 C-43.81 395.46 -38.76 391.34 -31.25 391.34 C-31.25 390.68 -31.25 390.02 -31.25 389.34 C-32.1 389.23 -32.94 389.13 -33.81 389.02 C-44.29 386.93 -54.28 380.22 -60.25 371.34 C-63.22 366.28 -65.95 361.3 -66.25 355.34 C-65.92 354.68 -65.59 354.02 -65.25 353.34 C-64.62 353.42 -64.62 353.42 -61.41 353.83 C-56.16 354.42 -50.97 354.45 -45.69 354.4 C-45.23 354.4 -45.23 354.4 -42.92 354.38 C-40.7 354.37 -38.47 354.36 -36.25 354.34 C-38.23 353.35 -40.21 352.36 -42.25 351.34 C-42.25 350.68 -42.25 350.02 -42.25 349.34 C-44.56 348.68 -46.87 348.02 -49.25 347.34 C-49.25 346.68 -49.25 346.02 -49.25 345.34 C-49.81 345.08 -50.38 344.83 -50.96 344.56 C-62.25 338.51 -68.99 326.89 -74.52 315.78 C-75.46 312.62 -75.44 309.81 -75.38 306.52 C-75.36 305.36 -75.34 304.2 -75.32 303 C-75.3 302.12 -75.27 301.24 -75.25 300.34 C-69.33 300.91 -63.82 302.14 -58.08 303.71 C-55.37 304.31 -53.02 304.45 -50.25 304.34 C-50.67 304 -50.67 304 -52.81 302.28 C-59.11 297.14 -64.7 292.11 -69.57 285.53 C-71.25 283.34 -71.25 283.34 -73.22 281.46 C-83.87 270.31 -88.72 251.69 -88.56 236.65 C-88.48 234.54 -88.39 232.44 -88.25 230.34 C-85.14 230.98 -82.74 232.04 -79.99 233.62 C-79.2 234.07 -78.41 234.52 -77.6 234.98 C-76.78 235.45 -75.97 235.92 -75.12 236.4 C-73.5 237.33 -71.87 238.26 -70.24 239.18 C-69.52 239.6 -68.81 240.01 -68.07 240.43 C-66.25 241.34 -66.25 241.34 -64.25 241.34 C-64.9 240.42 -65.55 239.51 -66.22 238.56 C-67.06 237.36 -67.91 236.16 -68.75 234.96 C-69.18 234.36 -69.61 233.75 -70.05 233.13 C-73.25 228.56 -73.25 228.56 -73.25 226.34 C-73.91 226.34 -74.57 226.34 -75.25 226.34 C-75.52 225.6 -75.8 224.87 -76.08 224.11 C-77.19 221.49 -78.49 219.31 -80 216.9 C-89.5 199.33 -90.12 180.87 -89.25 161.34 C-85.89 161.94 -83.97 163.11 -81.36 165.28 C-80.65 165.86 -79.94 166.44 -79.21 167.04 C-78.48 167.66 -77.75 168.27 -77 168.9 C-76.25 169.51 -75.51 170.13 -74.74 170.76 C-72.91 172.28 -71.08 173.81 -69.25 175.34 C-69.52 174.3 -69.78 173.26 -70.05 172.19 C-74.58 154.39 -76.43 137.6 -76.38 119.24 C-76.38 116.84 -76.38 114.44 -76.39 112.04 C-76.4 86.68 -76.4 86.68 -73 74.9 C-72.78 74.1 -72.55 73.29 -72.32 72.47 C-71.65 70.08 -70.95 67.71 -70.25 65.34 C-70.06 64.66 -69.87 63.99 -69.67 63.3 C-66.78 53.18 -62.42 39.36 -54.68 31.81 C-53.25 30.34 -53.25 30.34 -52.25 27.34 C-50.8 25.91 -50.8 25.91 -49 24.46 C-46.85 22.69 -44.89 20.96 -42.94 18.96 C-31.22 7.52 -16.72 0.05 0 0 Z M553.75 118.34 C554.75 120.34 554.75 120.34 554.75 120.34 Z M271.75 250.34 C272.75 252.34 272.75 252.34 272.75 252.34 Z " fill="#A09183" transform="translate(142.25,51.6640625)"/>
<path d="M0 0 C9.66 2.41 16.61 1.8 26.15 -0.76 C42.4 -5.02 59.49 -3.63 75.8 -0.24 C77.92 0.2 80.05 0.58 82.18 0.95 C89.57 2.24 96.76 3.78 103.88 6.19 C103.55 4.87 103.21 3.55 102.88 2.19 C102.21 2.19 101.56 2.19 100.88 2.19 C100.55 1.2 100.21 0.21 99.88 -0.81 C101.75 -0.19 101.75 -0.19 103.88 1.19 C104.57 3.18 105.23 5.18 105.88 7.19 C106.87 7.52 107.86 7.85 108.88 8.19 C108.88 8.85 108.88 9.51 108.88 10.19 C110.13 10.52 111.39 10.85 112.69 11.19 C126.01 15.24 138.54 21.36 150.88 27.75 C151.9 28.28 152.93 28.81 153.98 29.35 C171.97 38.81 188.72 50.67 203.88 64.19 C204.86 65.06 205.84 65.93 206.85 66.83 C245.18 101.41 274.66 145.95 287.88 196.19 C288.28 197.6 288.68 199.02 289.09 200.43 C298.34 233.2 299.72 266.08 293.33 299.52 C292.61 303.72 292.22 307.94 291.88 312.19 C287.02 314.56 283.21 315.54 277.79 315.68 C275.88 316.19 275.88 316.19 274.87 317.8 C274.54 318.59 274.21 319.38 273.88 320.19 C272.89 321.81 271.9 323.44 270.91 325.06 C267.2 331.08 263.79 337.15 260.69 343.5 C250.48 364.3 236.03 383.3 213.88 392.19 C200.07 396.84 189.71 397.21 175.88 393.19 C178.06 396.96 180.25 400.73 182.44 404.5 C183.05 405.55 183.66 406.61 184.28 407.69 C186.13 410.87 188 414.03 189.88 417.19 C190.46 418.18 191.05 419.17 191.66 420.2 C195.15 425.89 198.76 430.46 203.69 434.94 C217.73 448.4 227.28 465.29 228.21 485.09 C228.61 507.12 224.13 529.75 209.23 546.88 C205.73 550.32 202 553.46 198.22 556.58 C194.23 559.9 190.76 563.39 187.38 567.31 C173.97 582.53 155.13 591.01 135.88 596.19 C135.04 596.43 134.21 596.68 133.35 596.93 C116.84 601.13 98.9 598.64 84.23 590.34 C78.68 586.78 73.61 582.66 68.49 578.5 C54.68 567.29 41.15 561.6 23.88 558.19 C23.07 558 22.26 557.8 21.43 557.61 C0.79 554.23 -20.1 559.96 -37.37 571.32 C-40.92 573.95 -44.34 576.7 -47.73 579.53 C-54.33 585.01 -60.8 589.89 -68.5 593.75 C-69.14 594.07 -69.78 594.39 -70.44 594.73 C-77.54 598.11 -84.3 599.56 -92.19 599.5 C-92.92 599.5 -93.65 599.49 -94.41 599.49 C-118.9 598.99 -144.02 587.55 -162 571.19 C-162.54 570.7 -163.07 570.21 -163.62 569.71 C-166.36 567.14 -168.67 564.54 -170.82 561.45 C-173.29 557.95 -175.49 556.38 -179.12 554.19 C-194.28 542.75 -203.15 522.08 -205.8 503.64 C-208 479.97 -203.01 460.02 -187.8 441.26 C-185.25 438.24 -182.44 435.54 -179.56 432.81 C-173.28 426.72 -169.27 419.81 -165.12 412.19 C-164.56 411.16 -163.99 410.13 -163.41 409.07 C-162.43 407.26 -161.45 405.45 -160.48 403.64 C-158.5 400.06 -156.33 396.63 -154.12 393.19 C-154.79 393.4 -155.46 393.62 -156.14 393.84 C-171 398.33 -185.06 396.24 -198.75 389.19 C-206.66 384.91 -212.92 379.64 -219.12 373.19 C-219.85 372.47 -220.57 371.75 -221.32 371.02 C-231.04 360.87 -237.09 347.68 -243.06 335.13 C-251.13 318.43 -251.13 318.43 -256.49 316.2 C-258.69 315.75 -258.69 315.75 -260.82 315.57 C-264.1 315.03 -266.31 313.97 -269.12 312.19 C-270.25 309.33 -270.25 309.33 -270.77 305.87 C-270.87 305.24 -270.87 305.24 -271.38 302.05 C-271.57 300.72 -271.75 299.39 -271.94 298.06 C-272.14 296.77 -272.34 295.47 -272.55 294.14 C-273.12 290.49 -273.63 286.84 -274.12 283.19 C-274.24 282.4 -274.35 281.61 -274.47 280.8 C-275.44 273.45 -275.41 266.03 -275.44 258.62 C-275.44 257.9 -275.44 257.17 -275.45 256.43 C-275.45 243.03 -274.04 230.28 -271.12 217.19 C-270.96 216.43 -270.79 215.67 -270.62 214.88 C-268.54 205.49 -265.75 196.31 -262.77 187.18 C-262.12 185.16 -261.48 183.15 -260.84 181.13 C-258.96 175.29 -257.1 169.59 -254.14 164.2 C-253.05 162.04 -252.2 159.86 -251.34 157.6 C-242.3 134.79 -227.52 113.63 -211.69 95.03 C-210.14 93.2 -208.62 91.36 -207.1 89.51 C-200.84 81.95 -194.17 75.13 -186.79 68.65 C-185.13 67.19 -183.48 65.71 -181.82 64.23 C-166.87 50.98 -150.48 40.04 -133.12 30.19 C-132.37 29.75 -131.61 29.32 -130.83 28.87 C-96.1 9.19 -96.1 9.19 -85.12 9.19 C-85.12 8.53 -85.12 7.87 -85.12 7.19 C-58.49 -2.11 -27.58 -6.92 0 0 Z " fill="#AE9B8B" transform="translate(500.125,314.8125)"/>
<path d="M0 0 C1.25 -0.01 2.5 -0.02 3.79 -0.04 C42.49 -0.1 76.24 18.5 103.12 45.12 C109.44 51.49 115.02 58.21 120.41 65.36 C123.02 68.77 125.77 72.06 128.5 75.38 C132.11 79.79 135.63 84.22 138.94 88.88 C150.75 105.38 165.15 120.26 180.24 133.78 C183.91 137.07 187.55 140.41 191.17 143.75 C192.69 145.15 194.22 146.54 195.77 147.9 C209.01 160.07 217.31 178.22 218.15 196.09 C218.55 218.12 214.07 240.75 199.16 257.88 C195.66 261.32 191.94 264.46 188.16 267.58 C184.17 270.9 180.7 274.39 177.31 278.31 C163.91 293.53 145.07 302.01 125.81 307.19 C124.98 307.43 124.15 307.68 123.29 307.93 C106.77 312.13 88.84 309.64 74.17 301.34 C68.62 297.78 63.55 293.66 58.43 289.5 C44.62 278.29 31.09 272.6 13.81 269.19 C13.01 269 12.2 268.8 11.37 268.61 C-9.27 265.23 -30.16 270.96 -47.43 282.32 C-50.98 284.95 -54.4 287.7 -57.8 290.53 C-64.39 296.01 -70.87 300.89 -78.56 304.75 C-79.2 305.07 -79.85 305.39 -80.51 305.73 C-87.6 309.11 -94.37 310.56 -102.25 310.5 C-102.98 310.5 -103.71 310.49 -104.47 310.49 C-128.96 309.99 -154.08 298.55 -172.06 282.19 C-172.6 281.7 -173.13 281.21 -173.69 280.71 C-176.42 278.14 -178.73 275.54 -180.88 272.45 C-183.35 268.95 -185.56 267.38 -189.19 265.19 C-204.35 253.75 -213.22 233.08 -215.87 214.64 C-218.06 191.02 -213.13 170.96 -197.86 152.29 C-192.28 145.7 -186.25 139.77 -179.45 134.46 C-174.09 130.21 -169.29 125.55 -164.5 120.69 C-163.7 119.88 -162.9 119.08 -162.07 118.25 C-154.95 111.08 -148.37 103.53 -142 95.69 C-141.44 95 -140.89 94.32 -140.31 93.61 C-136.46 88.84 -132.73 83.98 -129.06 79.06 C-120.27 67.26 -111.35 55.84 -101.19 45.19 C-100.39 44.34 -99.59 43.48 -98.77 42.61 C-80.68 23.84 -57.01 9.27 -31.5 3.5 C-31.05 3.39 -31.05 3.39 -28.78 2.86 C-19.1 0.61 -9.92 0.01 0 0 Z " fill="#5E5650" transform="translate(510.1875,603.8125)"/>
<path d="M0 0 C18.63 10.49 34.45 26.94 47.04 44 C48.32 45.71 49.63 47.4 50.95 49.08 C65.84 68.36 78.06 90.79 86.32 113.72 C86.46 114.08 86.46 114.08 87.15 115.93 C94.06 134.52 100.14 154.65 99.32 174.72 C97.17 171.95 95.37 169.14 93.64 166.09 C86.54 154.26 78.18 146.7 66.32 139.72 C66.75 140.49 67.17 141.26 67.61 142.05 C80.07 166.46 82.97 193.69 82.32 220.72 C81.66 220.72 81 220.72 80.32 220.72 C80.26 220.43 80.26 220.43 79.91 218.95 C77.05 208.05 71.8 198.15 62.32 191.72 C59.7 190.21 57.1 188.96 54.32 187.72 C54.76 188.73 55.19 189.74 55.64 190.78 C59.78 202.01 60.8 213.39 60.66 225.24 C60.64 227.35 60.64 229.46 60.65 231.58 C60.6 254.44 60.6 254.44 56.32 258.72 C56.19 258.34 56.19 258.34 55.51 256.41 C51.91 246.92 47.33 239.74 38.32 234.72 C38.54 236.02 38.76 237.31 38.98 238.65 C41.24 253.08 41.68 267.13 41.32 281.72 C40.66 281.72 40 281.72 39.32 281.72 C39.17 281.15 39.01 280.58 38.84 280 C37.14 274.37 35.04 270.29 31.32 265.72 C30.66 265.39 30 265.06 29.32 264.72 C29.54 265.32 29.75 265.92 29.97 266.53 C32.08 272.94 32.8 278.62 32.7 285.34 C32.69 286.3 32.68 287.25 32.68 288.24 C32.51 296.68 31.32 304.52 29.32 312.72 C29.1 313.73 28.87 314.75 28.63 315.79 C25.72 327.71 19.84 339.23 9.21 346.08 C0.99 349.56 -7.65 347.91 -15.68 344.72 C-22.49 341.59 -28.17 337.68 -33.91 332.89 C-39.2 328.74 -44.97 325.27 -50.68 321.72 C-49.68 319.72 -49.68 319.72 -46.77 318.68 C-45.58 318.34 -44.4 318.01 -43.18 317.66 C-36.77 315.81 -36.77 315.81 -35.68 314.72 C-34.16 314.49 -32.64 314.31 -31.11 314.16 C-30.7 314.11 -30.7 314.11 -28.61 313.9 C-27.97 313.84 -27.33 313.78 -26.68 313.72 C-27.44 313.32 -28.2 312.92 -28.98 312.5 C-40.97 305.91 -48.87 297.61 -55.68 285.72 C-55.68 285.06 -55.68 284.4 -55.68 283.72 C-49.65 283.33 -45.06 284.67 -39.43 286.72 C-37.84 287.29 -36.25 287.85 -34.66 288.41 C-33.97 288.66 -33.27 288.91 -32.56 289.17 C-30.68 289.72 -30.68 289.72 -27.68 289.72 C-28.08 289.33 -28.48 288.94 -28.89 288.53 C-35.28 281.81 -39.37 273.86 -43.68 265.72 C-43.98 265.15 -43.98 265.15 -45.51 262.26 C-48.15 257.16 -50.4 252.33 -51.68 246.72 C-40.64 248.56 -31.42 255.11 -22.68 261.72 C-23.15 260.81 -23.62 259.9 -24.11 258.96 C-33.93 239.82 -41.62 220.02 -48.68 199.72 C-48.83 199.29 -48.83 199.29 -49.59 197.13 C-53.11 187.13 -55.91 177.15 -58.2 166.79 C-58.99 163.36 -59.87 159.95 -60.74 156.53 C-61.39 153.93 -62.03 151.32 -62.68 148.72 C-62.94 147.64 -63.21 146.56 -63.49 145.45 C-64.32 141.89 -65.03 138.32 -65.68 134.72 C-65.81 133.96 -65.95 133.2 -66.09 132.42 C-72.95 92.8 -72.74 42.31 -49.68 7.72 C-46.55 3.59 -43.4 0.13 -38.99 -2.66 C-38.24 -3.14 -37.5 -3.62 -36.73 -4.12 C-25.45 -10.52 -10.75 -5.15 0 0 Z " fill="#CF9583" transform="translate(209.67578125,154.28125)"/>
<path d="M0 0 C10.05 7.51 16.43 19.83 19.43 31.85 C20 34 20 34 20.96 36.28 C22.03 39.09 22.67 41.76 23.25 44.71 C23.47 45.79 23.68 46.87 23.9 47.98 C24.12 49.1 24.34 50.22 24.56 51.38 C24.78 52.49 25 53.6 25.23 54.74 C26.9 63.2 28.16 71.33 28.2 79.96 C28.21 80.38 28.21 80.38 28.22 82.54 C28.39 108.44 26.53 132.77 21.12 158.12 C21.04 158.51 21.04 158.51 20.63 160.47 C18.58 169.99 16.12 179.27 13.12 188.53 C11.84 192.5 10.69 196.49 9.56 200.5 C3.4 221.67 -5.79 242 -15 262 C-14.55 261.7 -14.55 261.7 -12.25 260.17 C4.7 249 4.7 249 12 249 C7.5 263.99 -0.58 281.11 -12 292 C-8.62 291.37 -5.36 290.57 -2.06 289.56 C-1.19 289.3 -0.32 289.04 0.58 288.77 C2.47 288.17 4.33 287.5 6.19 286.81 C9.55 285.84 12.52 285.86 16 286 C10.05 299.56 -0.44 310.05 -14 316 C-13.03 316.17 -12.07 316.34 -11.07 316.52 C-3.32 317.94 3.81 319.66 11 323 C8.42 324.97 5.8 326.81 3.06 328.56 C-0.28 330.76 -3.41 333.12 -6.51 335.64 C-16.34 343.57 -28.09 350.52 -41.02 350.33 C-48.03 349.55 -53.29 346.32 -57.75 340.94 C-69.39 324.34 -72.15 306.67 -72.25 286.88 C-72.27 285.86 -72.29 284.84 -72.31 283.79 C-72.35 277.3 -71.5 272 -69 266 C-69.66 266 -70.32 266 -71 266 C-71.26 266.51 -71.51 267.02 -71.77 267.55 C-74.52 273.03 -77.26 278.52 -80 284 C-80.33 284 -80.66 284 -81 284 C-84.58 267.95 -82.12 251.35 -77 236 C-86.97 241.56 -92.59 249.17 -96 260 C-96.66 260 -97.32 260 -98 260 C-102.58 236.65 -103.11 212.64 -95 190 C-107.42 196.49 -115.33 205.79 -119.81 219.06 C-120.22 220.37 -120.62 221.68 -121 223 C-121.33 223 -121.66 223 -122 223 C-122.82 195.65 -120.92 165.91 -106 142 C-121.28 150.29 -130.77 161.34 -138 177 C-138.33 177 -138.66 177 -139 177 C-140.78 154.54 -133.2 128.46 -122.86 108.67 C-121.84 106.68 -121.06 104.66 -120.31 102.56 C-110.33 77.28 -93.43 52.28 -74.64 32.76 C-72.46 30.48 -70.4 28.16 -68.38 25.75 C-53.18 8.33 -23.75 -14.76 0 0 Z " fill="#CF9583" transform="translate(853,152)"/>
<path d="M0 0 C1.03 0 2.07 0 3.13 0 C16.66 0.22 29.35 2.48 41.56 8.38 C42.53 8.83 43.5 9.29 44.5 9.76 C58.03 16.79 67.75 26.87 72.56 41.38 C74.72 48.46 74.57 56.86 71.53 63.64 C67.89 70.18 62.79 73.5 56.56 77.38 C53.07 79.7 52.89 81.28 51.56 85.09 C45.75 98.41 30.62 106.88 17.62 112 C8.51 115.38 8.51 115.38 5.56 115.38 C3.87 120.85 4.3 126.69 4.27 132.37 C4.26 133.78 4.24 135.19 4.21 136.6 C3.97 147.92 5.27 157.31 12.56 166.38 C18.81 172.75 25.45 176.71 33.44 180.56 C51.64 189.69 67.68 201.4 83.24 214.46 C90.71 220.69 98.35 226.46 106.44 231.88 C107.29 232.45 108.15 233.03 109.03 233.62 C126.09 244.85 146.54 252.74 167.24 248.88 C173.07 247.58 178.82 246.02 184.56 244.38 C176.68 260.9 156.93 271.96 140.46 278.17 C135.88 279.78 131.25 281.11 126.56 282.38 C125.73 282.62 124.9 282.87 124.04 283.12 C107.52 287.32 89.59 284.82 74.92 276.53 C69.37 272.97 64.3 268.85 59.18 264.69 C45.37 253.47 31.84 247.79 14.56 244.38 C13.76 244.18 12.95 243.99 12.12 243.79 C-8.52 240.42 -29.41 246.15 -46.68 257.51 C-50.23 260.14 -53.65 262.89 -57.05 265.72 C-63.64 271.2 -70.12 276.08 -77.81 279.94 C-78.45 280.26 -79.1 280.58 -79.76 280.91 C-86.85 284.3 -93.62 285.75 -101.5 285.69 C-102.23 285.68 -102.96 285.68 -103.72 285.67 C-128.26 285.18 -153.3 273.69 -171.38 257.38 C-171.92 256.89 -172.46 256.4 -173.02 255.9 C-176.75 252.42 -179.09 248.9 -181.44 244.38 C-181.06 244.48 -181.06 244.48 -179.17 245 C-178.68 245.13 -178.68 245.13 -176.19 245.81 C-175.21 246.08 -174.24 246.35 -173.23 246.62 C-172.31 246.87 -171.39 247.12 -170.44 247.38 C-169.83 247.55 -169.23 247.73 -168.61 247.91 C-163.94 248.91 -159.06 248.56 -154.31 248.56 C-153.22 248.57 -152.13 248.59 -151.01 248.6 C-128.2 248.64 -108.83 237.29 -91.44 223.38 C-91.03 223.05 -91.03 223.05 -88.97 221.42 C-86.45 219.41 -83.94 217.39 -81.44 215.38 C-62.66 200.31 -43.5 187.33 -22.19 176.06 C-12.71 170.87 -6.64 165.56 -2.44 155.38 C-1.41 151.29 -1.31 147.42 -1.3 143.21 C-1.3 142.54 -1.3 141.86 -1.3 141.17 C-1.3 139.75 -1.3 138.33 -1.31 136.92 C-1.31 134.75 -1.31 132.58 -1.3 130.41 C-1.3 129.03 -1.3 127.65 -1.3 126.27 C-1.31 125.65 -1.31 125.65 -1.31 122.48 C-1.44 119.38 -1.44 119.38 -2.44 116.38 C-5.06 115.38 -5.06 115.38 -8.44 114.38 C-10.78 113.4 -13.11 112.4 -15.44 111.38 C-16.05 111.11 -16.67 110.84 -17.31 110.56 C-29.96 104.94 -41.25 97.6 -48.44 85.38 C-48.56 84.87 -48.56 84.87 -49.19 82.31 C-51.17 77.66 -55.23 75.94 -59.44 73.38 C-65.04 69.27 -68.65 65.54 -70.12 58.54 C-71.84 46.67 -68.78 35.69 -61.72 26.02 C-54.36 17.24 -44.41 9.77 -33.44 6.31 C-27.75 4.51 -27.75 4.51 -25.07 3.38 C-17.09 0.33 -8.46 -0.01 0 0 Z " fill="#413D39" transform="translate(509.4375,628.625)"/>
<path d="M0 0 C0.17 0.92 0.33 1.83 0.5 2.78 C2.22 11.85 4.57 20.51 7.38 29.31 C21.6 75.44 20.2 119.89 -2.57 163.04 C-11.5 179.35 -22.9 192.9 -36 206 C-36.28 206.31 -36.28 206.31 -37.71 207.85 C-47.95 218.76 -61.08 226.67 -74 234 C-74.31 234.18 -74.31 234.18 -75.89 235.08 C-83.7 239.53 -83.7 239.53 -87 241 C-87.66 240.67 -88.32 240.34 -89 240 C-88.45 239.48 -87.91 238.95 -87.35 238.41 C-76.97 227.75 -70.46 214.42 -67 200 C-66.78 199.17 -66.55 198.34 -66.32 197.49 C-61.86 178.14 -64.66 156.96 -75 140 C-78.97 133.93 -83.29 128.57 -88.61 123.65 C-98.06 114.86 -103.87 104.25 -110 93 C-110.41 92.25 -110.82 91.51 -111.25 90.74 C-113.21 87.18 -115.13 83.61 -117 80 C-116.27 80.22 -115.55 80.43 -114.8 80.66 C-99.32 84.94 -84.6 83.2 -70.39 75.46 C-52.43 64.46 -41.05 49.78 -32.04 31.14 C-29.94 26.82 -27.66 22.62 -25.31 18.44 C-24.96 17.8 -24.6 17.15 -24.23 16.49 C-23.19 14.64 -22.11 12.82 -21 11 C-20.61 10.36 -20.22 9.71 -19.82 9.05 C-17.81 5.97 -16.6 4.28 -13.21 2.7 C-12.28 2.51 -11.34 2.32 -10.38 2.12 C-9.43 1.92 -8.49 1.72 -7.52 1.51 C-6.69 1.34 -5.86 1.17 -5 1 C-2 0 -2 0 0 0 Z " fill="#E9C8A3" transform="translate(792,627)"/>
<path d="M0 0 C0.57 0.19 1.14 0.39 1.72 0.59 C2.49 0.85 3.27 1.11 4.06 1.38 C4.44 1.5 4.44 1.5 6.35 2.15 C9 3 9 3 12.54 3.74 C16.87 5.32 17.88 6.85 20.25 10.75 C20.62 11.35 20.99 11.95 21.37 12.57 C25.31 19.17 28.6 26.12 31.98 33.02 C37.56 44.32 44.14 53.96 53 63 C53.65 63.69 54.3 64.37 54.97 65.08 C66.67 76.5 82.46 82.85 98.69 83.31 C104.23 83.16 109.59 82.17 115 81 C112.76 87.04 109.43 92.47 106.17 98 C105.39 99.34 104.61 100.68 103.84 102.02 C99.14 110.18 94.34 117.09 87.48 123.56 C73.03 137.35 64.18 156.06 63.58 176.08 C63.45 199.27 70.62 222.07 87 239 C86.34 239.33 85.68 239.66 85 240 C64.54 232.18 46.66 216.9 31 202 C30.28 201.34 29.57 200.67 28.83 199.99 C9.3 181.36 -4.12 155.24 -11.56 129.56 C-11.78 128.82 -12 128.07 -12.22 127.3 C-15.39 116.29 -17.14 105.74 -17.2 94.27 C-17.21 93.47 -17.21 92.67 -17.22 91.84 C-17.23 90.16 -17.24 88.48 -17.24 86.8 C-17.25 84.27 -17.28 81.74 -17.31 79.21 C-17.37 69.7 -16.63 61.21 -14 52 C-13.58 50.19 -13.16 48.38 -12.75 46.56 C-11.3 40.74 -9.42 35.08 -7.56 29.38 C-4.4 19.69 -1.98 9.99 0 0 Z " fill="#E9C7A3" transform="translate(231,627)"/>
<path d="M0 0 C1.03 0.36 2.07 0.72 3.13 1.1 C23.44 8.92 40.63 24.27 55.62 39.69 C59.22 43.35 63.18 46.53 67.19 49.74 C68.96 51.16 70.71 52.6 72.44 54.07 C87.98 67.11 106.04 74.75 126.62 73.34 C133.64 72.34 140.33 69.42 146.89 66.82 C149.56 65.78 152.27 64.87 155 64 C145.54 81.18 122.49 91.1 104.49 96.39 C85.68 101.38 66.49 100.85 49.36 91.15 C43.8 87.59 38.73 83.47 33.62 79.31 C19.81 68.1 6.27 62.41 -11 59 C-11.81 58.81 -12.61 58.62 -13.45 58.42 C-34.08 55.04 -54.97 60.77 -72.24 72.13 C-75.79 74.76 -79.22 77.51 -82.61 80.34 C-89.21 85.83 -95.68 90.7 -103.38 94.56 C-104.02 94.88 -104.66 95.21 -105.32 95.54 C-112.41 98.92 -119.18 100.38 -127.06 100.31 C-127.79 100.31 -128.53 100.3 -129.28 100.3 C-155.92 99.76 -181.38 86.63 -200.45 68.67 C-203 66 -203 66 -204 63 C-201.07 64.1 -198.47 65.31 -195.75 66.88 C-182.35 73.59 -164.93 75.53 -150.66 70.96 C-149.78 70.65 -148.91 70.33 -148 70 C-147.06 69.67 -146.12 69.34 -145.15 69 C-131.24 63.7 -120.59 55.15 -110 45 C-108.74 43.89 -107.47 42.78 -106.19 41.69 C-103.61 39.46 -101.1 37.16 -98.63 34.81 C-83.46 20.39 -67.57 8.02 -48 0 C-47.01 -0.42 -46.02 -0.83 -45 -1.26 C-30.37 -6.6 -14.45 -5.09 0 0 Z " fill="#5E5650" transform="translate(535,814)"/>
<path d="M0 0 C16.4 12.85 24.14 30.63 29.48 50.23 C30.12 52.25 30.12 52.25 31.27 54.27 C32.37 56.81 31.98 57.63 31.12 60.25 C20.62 82.65 9.86 98.52 -13.35 108.29 C-24.61 112.1 -40.57 112.45 -51.47 107.5 C-52.27 107.09 -53.06 106.68 -53.88 106.25 C-54.78 105.83 -55.69 105.4 -56.62 104.96 C-69.41 98.6 -77.46 88.38 -85.88 77.25 C-88.18 74.23 -90.23 71.71 -93.38 69.56 C-93.94 69.17 -94.51 68.77 -95.09 68.36 C-96.97 67.19 -98.88 66.21 -100.88 65.25 C-100.49 64.72 -100.1 64.18 -99.7 63.63 C-94.93 56.8 -92.07 50.01 -89.54 42.11 C-82.87 21.25 -74.51 5.12 -55.06 -6.42 C-37.11 -14.93 -15.82 -10.7 0 0 Z " fill="#1D1814" transform="translate(723.875,567.75)"/>
<path d="M0 0 C14.01 10.01 21.1 23.26 26.11 39.39 C29.37 49.56 33.26 59.18 38.75 68.38 C37.62 68.85 36.48 69.32 35.31 69.81 C25.81 74.58 19.6 83.91 13.37 92.21 C9 97.7 3.53 101.48 -2.25 105.38 C-2.86 105.8 -3.47 106.23 -4.09 106.66 C-15.63 114.07 -31.91 114.01 -45 111.72 C-62.1 106.95 -74.56 95.97 -83.4 80.8 C-86 75.99 -88.44 71.11 -90.8 66.18 C-92.25 63.38 -92.25 63.38 -94.25 61.38 C-93.99 59.6 -93.99 59.6 -93.25 57.38 C-92.98 56.52 -92.71 55.66 -92.44 54.77 C-84.58 30.96 -76.85 9.14 -53.25 -3.2 C-36.33 -11.08 -15.85 -9.81 0 0 Z " fill="#1D1814" transform="translate(360.25,565.625)"/>
<path d="M0 0 C20.25 15.66 32.85 39.17 36.71 64.28 C37.62 72.45 37.28 80.73 37 88.94 C39.97 89.27 42.94 89.6 46 89.94 C44.47 93.02 42.83 95.89 41.03 98.81 C37.33 104.83 33.92 110.91 30.82 117.25 C20.61 138.05 6.16 157.05 -16 165.94 C-27.92 169.96 -38.55 171.61 -50.74 168.09 C-55.97 165.43 -58.86 160.87 -61.75 155.94 C-65.5 149.66 -69.54 143.62 -73.78 137.66 C-75.04 135.88 -76.28 134.08 -77.52 132.28 C-82.92 124.57 -88.74 117.82 -95.58 111.33 C-97.08 109.9 -98.54 108.42 -100 106.94 C-100 106.28 -100 105.62 -100 104.94 C-100.54 104.72 -101.08 104.5 -101.64 104.27 C-104.75 102.52 -107.17 100.19 -109.75 97.75 C-110.82 96.75 -111.89 95.76 -112.96 94.76 C-113.22 94.52 -113.22 94.52 -114.53 93.29 C-116.42 91.55 -118.36 89.87 -120.31 88.19 C-121.54 87.11 -122.77 86.03 -124 84.94 C-124.29 84.69 -124.29 84.69 -125.76 83.42 C-137.32 72.77 -146.17 54.2 -147.15 38.45 C-147.19 35.92 -147.17 33.4 -147.12 30.88 C-147.11 30.01 -147.1 29.15 -147.09 28.26 C-147.07 26.15 -147.03 24.05 -147 21.94 C-146.34 21.94 -145.68 21.94 -145 21.94 C-144.48 23.03 -143.96 24.11 -143.42 25.23 C-142.72 26.68 -142.01 28.12 -141.31 29.57 C-141.14 29.92 -141.14 29.92 -140.28 31.73 C-135.94 40.58 -129 49.19 -119.57 52.89 C-117.37 53.44 -117.37 53.44 -114 53.94 C-113.99 53.34 -113.99 52.74 -113.99 52.12 C-113.11 31.55 -105.81 9.14 -93 -7.06 C-92.83 -6.73 -92.83 -6.73 -92 -5.06 C-92.77 -2.75 -92.77 -2.75 -93.93 -0.06 C-96 4.75 -96 4.75 -96 6.94 C-95.31 6.05 -94.62 5.15 -93.91 4.23 C-91.16 0.94 -88.01 -1.38 -84.37 -3.62 C-83.76 -4.01 -83.14 -4.39 -82.51 -4.79 C-55.48 -21.39 -25.43 -17.47 0 0 Z M-78 33.94 C-78.92 34.87 -79.85 35.8 -80.81 36.75 C-89.22 46.86 -93.31 59.96 -97.03 72.34 C-99.16 79.22 -102.1 84.9 -106 90.94 C-106.16 91.27 -106.16 91.27 -107 92.94 C-105.94 93.35 -104.89 93.77 -103.81 94.19 C-97.47 96.68 -93.66 101.36 -89.68 106.63 C-88.71 107.89 -87.74 109.14 -86.76 110.39 C-86.29 111 -85.82 111.61 -85.33 112.24 C-76.1 124.04 -64.06 133.77 -49 136.94 C-29.55 138.53 -13.38 135.19 2.19 122.82 C11.98 113.65 23.59 96.29 26 82.94 C25.37 81.07 25.37 81.07 24.32 79.07 C22.47 75.23 21.3 71.51 20.25 67.38 C15.53 50.31 5.7 33.34 -9.95 24.22 C-12.94 22.69 -15.91 21.26 -19 19.94 C-20.2 19.4 -21.4 18.86 -22.64 18.3 C-27.9 16.38 -33.14 16.41 -38.68 16.44 C-39.22 16.44 -39.22 16.44 -41.91 16.46 C-57.1 16.8 -67.72 22.84 -78 33.94 Z " fill="#9F8F81" transform="translate(729.99609375,541.05859375)"/>
<path d="M0 0 C3.35 2.53 6.03 4.83 8.38 8.31 C7.62 5.19 6.74 2.13 5.81 -0.94 C5.54 -1.83 5.27 -2.72 5 -3.64 C4.79 -4.32 4.59 -4.99 4.38 -5.69 C16.38 5.39 20.15 23.5 23.69 38.88 C23.86 39.61 24.03 40.35 24.21 41.11 C25.19 45.61 25.54 49.71 25.38 54.31 C35.37 51.83 43.6 45.87 49.38 37.31 C52.06 32.46 54.62 27.58 56.38 22.31 C57.03 22.31 57.69 22.31 58.38 22.31 C59.08 43.6 55.44 64.2 40.38 80.31 C34.86 86.19 29.23 91.6 22.76 96.44 C17.7 100.41 13.06 104.9 8.38 109.31 C7.7 109.94 7.03 110.57 6.34 111.22 C-9.05 126.08 -23.07 147.2 -32.62 166.31 C-45.82 171.84 -59.43 171.86 -72.71 166.46 C-83.27 161.73 -91.64 155.61 -99.62 147.31 C-100.35 146.6 -101.07 145.88 -101.82 145.14 C-111.57 134.97 -117.61 121.73 -123.64 109.17 C-126.23 103.83 -129.06 98.94 -132.5 94.1 C-133.62 92.31 -133.62 92.31 -133.62 90.31 C-130.66 90.31 -127.69 90.31 -124.62 90.31 C-124.65 89.63 -124.67 88.95 -124.69 88.24 C-125.27 66.28 -124.04 47.45 -112.62 28.31 C-112.31 27.78 -112.31 27.78 -110.71 25.08 C-98.46 5.65 -81.89 -6.98 -59.88 -13.56 C-38.15 -18.41 -17.64 -12.98 0 0 Z M-94.5 38.52 C-104.09 51.43 -109.04 67.08 -113.62 82.31 C-113.86 83 -114.1 83.68 -114.35 84.39 C-114.62 86.31 -114.62 86.31 -112.43 89.57 C-112.2 89.87 -112.2 89.87 -111.01 91.4 C-108.8 94.44 -107.34 97.79 -105.75 101.19 C-102.67 107.53 -99.39 113.06 -94.62 118.31 C-93.97 119.07 -93.32 119.83 -92.64 120.61 C-83.29 130.78 -70.71 136.93 -56.91 137.59 C-38.65 138.1 -24.46 134.17 -10.64 121.48 C-7.45 118.04 -4.63 114.32 -1.77 110.59 C4.09 103 9.33 96.84 18.38 93.31 C17.86 92.4 17.34 91.49 16.8 90.56 C11.83 81.67 8.37 73.06 5.38 63.31 C0.09 46.73 -8.23 31.8 -23.71 22.79 C-48.79 10.1 -76.66 17.52 -94.5 38.52 Z " fill="#9F8F81" transform="translate(380.625,540.6875)"/>
<path d="M0 0 C1.79 1.43 3.57 2.86 5.36 4.3 C16.27 13.02 27.54 19.83 40.9 24.11 C24.89 40.78 3.07 51.42 -19.1 57.11 C-20.1 57.37 -21.1 57.64 -22.13 57.91 C-31.47 59.98 -41.91 59.89 -51.37 58.53 C-54.73 58.15 -56.01 58.28 -59.1 59.11 C-75.41 60.54 -91.25 58.11 -106.1 51.11 C-107.16 50.62 -108.22 50.12 -109.32 49.62 C-142.26 33.79 -142.26 33.79 -147.1 24.11 C-146.23 23.83 -145.35 23.55 -144.46 23.26 C-132.41 19.21 -122.67 13.67 -113.09 5.31 C-81.11 -22.3 -34.23 -26.93 0 0 Z " fill="#EFDAC5" transform="translate(564.0966796875,888.8916015625)"/>
<path d="M0 0 C11.15 9.05 18.39 21.54 20.28 35.79 C21.76 51.79 19.54 67.79 9.56 80.88 C5.27 85.52 0.82 89.68 -5.74 89.98 C-7.98 90 -10.2 89.96 -12.44 89.88 C-12.6 89.29 -12.75 88.71 -12.92 88.11 C-18.84 67.31 -29.6 47.51 -48.44 35.88 C-58.35 30.58 -68.34 28.24 -79.44 26.88 C-76.89 20.85 -71.45 17.3 -65.68 14.57 C-60.28 12.51 -55.19 11.31 -49.44 10.88 C-50.89 9.89 -52.35 8.92 -53.81 7.94 C-54.62 7.39 -55.44 6.85 -56.27 6.29 C-58.44 4.88 -58.44 4.88 -60.44 3.88 C-58.66 -1.45 -53.17 -3.53 -48.44 -6.12 C-32.94 -13.5 -13.52 -9.44 0 0 Z " fill="#E3B88B" transform="translate(413.4375,479.125)"/>
<path d="M0 0 C2.77 1.98 4.99 4.05 7.24 6.6 C5.81 7.41 4.37 8.23 2.93 9.04 C2.53 9.26 2.53 9.26 0.5 10.41 C-1.76 11.6 -1.76 11.6 -4.76 12.6 C-4.76 13.26 -4.76 13.92 -4.76 14.6 C-4.23 14.55 -4.23 14.55 -1.57 14.29 C8.87 14.36 17.22 19.7 24.51 26.71 C26.24 28.6 26.24 28.6 26.24 29.6 C25.9 29.6 25.9 29.6 24.18 29.61 C7.68 30.26 -8.19 37.94 -19.5 49.91 C-30.07 62.53 -36.99 76.89 -41.76 92.6 C-46.73 93.28 -50.98 93.54 -55.5 91.13 C-61.18 86.77 -65.48 81.96 -68.76 75.6 C-69.24 74.68 -69.73 73.77 -70.23 72.83 C-73.83 64.7 -74.22 57.15 -74.26 48.35 C-74.26 47.25 -74.27 46.15 -74.28 45.01 C-74.04 30.01 -68.5 17.76 -58.17 6.89 C-42.38 -8.11 -18.75 -11.89 0 0 Z " fill="#E3B88C" transform="translate(662.7578125,476.40234375)"/>
<path d="M0 0 C8.58 2.09 14.05 6.12 19.38 13.12 C22.57 18.77 23.47 23.6 24 30 C24.85 30.1 25.69 30.21 26.56 30.31 C30.41 31.08 33.44 32.36 37 34 C37.33 32.02 37.66 30.04 38 28 C38.33 28 38.66 28 39 28 C40.05 43.1 36.66 55.12 27 67 C26.37 67.84 25.74 68.68 25.09 69.55 C17.82 78.06 6.32 82.22 -4.55 83.38 C-16.99 83.8 -27.3 79.72 -37 72 C-47.78 61.39 -52.97 48.15 -53.25 33.19 C-53.27 29.18 -53.1 26.45 -51 23 C-50.34 23.99 -49.68 24.98 -49 26 C-47.97 25.22 -46.94 24.43 -45.88 23.62 C-42.71 21.37 -39.83 19.89 -36 19 C-35.34 19.33 -34.68 19.66 -34 20 C-33.59 19.28 -33.18 18.56 -32.76 17.81 C-32.22 16.88 -31.68 15.96 -31.12 15 C-30.59 14.07 -30.06 13.14 -29.51 12.19 C-29.01 11.47 -28.51 10.74 -28 10 C-27.34 10 -26.68 10 -26 10 C-24.56 11.71 -24.56 11.71 -23 13.94 C-20.21 17.9 -20.21 17.9 -18 19 C-12.99 19.55 -9.08 19.52 -4.5 17.31 C-1.07 14.14 -0.09 12.13 0.11 7.46 C0.12 4.97 0.09 2.49 0 0 Z " fill="#121111" transform="translate(341,585)"/>
<path d="M0 0 C0.05 0.33 0.05 0.33 0.3 2.01 C1.35 8.24 2.48 12.45 7.81 16.31 C12.44 17.77 15.87 17.58 20.19 15.38 C24.34 11.87 26.64 7.81 29 3 C30.15 4.24 31.3 5.49 32.44 6.75 C33.08 7.45 33.71 8.14 34.37 8.86 C35.99 10.99 36.58 12.39 37 15 C37.83 15.02 38.65 15.04 39.5 15.06 C45.63 16.7 49.63 21.59 54 26 C53.98 25.03 53.96 24.06 53.94 23.06 C54 20 54 20 55 19 C55.36 17.67 55.7 16.34 56 15 C60.18 27.54 58.85 41.03 53.44 52.88 C48.47 62.5 40.9 70.78 31.12 75.62 C30.32 76.03 29.52 76.43 28.7 76.85 C19.05 80.96 8.19 81.79 -1.81 78.38 C-15.98 72.35 -24.56 63.64 -31.07 49.7 C-33.95 41.94 -32.83 34.07 -32 26 C-31.67 27.32 -31.34 28.64 -31 30 C-30.05 29.5 -29.1 29.01 -28.12 28.5 C-25 27 -25 27 -23 27 C-23 26.34 -23 25.68 -23 25 C-21.68 24.67 -20.36 24.34 -19 24 C-18.81 22.74 -18.63 21.48 -18.44 20.19 C-16.95 13.44 -13.2 6.76 -7.94 2.22 C-5.45 0.66 -2.96 0 0 0 Z " fill="#111110" transform="translate(676,588)"/>
<path d="M0 0 C0.74 0.28 1.47 0.55 2.23 0.84 C14.66 6.23 24.58 18.95 29.89 31.07 C33.33 41.49 32.4 55.37 28.33 65.43 C21.38 78.89 11.34 88.21 -2.94 93.38 C-17.11 97.35 -32.79 96.09 -45.95 89.53 C-57.17 82.9 -66.93 73.16 -71.13 60.64 C-74.19 47.88 -71.61 35.84 -65.65 24.41 C-64.22 22.14 -62.69 20.08 -61 18 C-60.33 17.17 -59.66 16.34 -58.97 15.48 C-43.41 -2.79 -22.6 -8.86 0 0 Z M-42 13 C-47.99 19.74 -51.97 26.04 -53 35 C-54.32 35.33 -55.64 35.66 -57 36 C-57 36.66 -57 37.32 -57 38 C-59.65 39.08 -62.28 40.09 -65 41 C-65.33 39.68 -65.66 38.36 -66 37 C-67.69 51.48 -66.15 62.09 -57 74 C-56.55 74.63 -56.1 75.25 -55.63 75.9 C-49.51 83.82 -39.64 88.78 -30 91 C-18.01 92.42 -6.5 90.23 3.44 83.12 C4.65 82.11 5.84 81.07 7 80 C7.61 79.45 8.23 78.91 8.86 78.34 C17.93 69.82 23.62 58.66 24.17 46.2 C24.18 44.84 24.19 43.48 24.19 42.12 C24.19 41.77 24.19 41.77 24.19 39.99 C24.14 34.99 23.58 30.73 22 26 C21.92 26.31 21.92 26.31 21.54 27.87 C21.18 29.27 20.82 30.67 20.44 32.06 C20 34 20 34 20 37 C19.4 36.37 18.79 35.75 18.17 35.1 C17.37 34.28 16.57 33.47 15.75 32.62 C15.36 32.22 15.36 32.22 13.36 30.16 C9.71 26.82 8 26 3 26 C2.9 25.66 2.9 25.66 2.38 23.94 C0.55 20.03 -2.1 17.16 -5 14 C-5.27 14.57 -5.54 15.15 -5.82 15.74 C-7.02 18.03 -8.35 20.04 -9.88 22.12 C-10.37 22.81 -10.86 23.49 -11.37 24.2 C-14.11 27.22 -16.35 27.93 -20.38 28.38 C-24.75 27.92 -26.68 26.86 -30 24 C-32.72 19.78 -33.5 15.96 -34 11 C-37.11 11 -39.34 11.49 -42 13 Z " fill="#372311" transform="translate(710,577)"/>
<path d="M0 0 C2.76 1.92 4.91 3.97 7.14 6.49 C7.74 7.09 8.35 7.69 8.97 8.31 C18.23 17.89 24.97 31.49 25.58 44.93 C25.16 57.93 17.81 68.63 8.67 77.36 C-4.37 88.36 -20.13 91.9 -36.81 90.72 C-49.3 89.35 -60.35 81.94 -68.85 73.02 C-78.39 61.01 -80.15 47.28 -78.86 32.49 C-77.3 24.87 -73.52 18.64 -68.86 12.49 C-68.41 11.89 -67.96 11.28 -67.49 10.66 C-50.3 -10.86 -22.84 -14.44 0 0 Z M-18.86 3.49 C-18.84 3.82 -18.84 3.82 -18.75 5.47 C-18.59 10.9 -18.61 14.89 -21.86 19.49 C-25.64 22.93 -29.58 23 -34.49 22.84 C-37.93 22.33 -39.56 21.07 -41.86 18.49 C-43.67 15.74 -43.67 15.74 -44.86 13.49 C-48.56 14.72 -48.79 15.69 -50.55 19.05 C-50.77 19.47 -50.77 19.47 -51.87 21.56 C-52.2 22.2 -52.52 22.83 -52.86 23.49 C-53.85 23.16 -54.84 22.83 -55.86 22.49 C-57.73 23.16 -57.73 23.16 -59.73 24.24 C-60.08 24.43 -60.08 24.43 -61.85 25.37 C-64.22 26.69 -66.56 28.05 -68.86 29.49 C-69.52 28.5 -70.18 27.51 -70.86 26.49 C-74.21 37.9 -71.46 50.92 -66.47 61.42 C-65.05 63.88 -63.53 66.19 -61.86 68.49 C-61.42 69.13 -60.98 69.76 -60.53 70.41 C-54.24 78.62 -43.85 84.25 -33.86 86.49 C-20.88 87.96 -9.14 84.89 1.64 77.54 C11.17 69.75 18.01 57.62 20.14 45.49 C20.37 40.81 20.32 36.17 20.14 31.49 C19.81 31.49 19.48 31.49 19.14 31.49 C18.81 33.47 18.48 35.45 18.14 37.49 C17.54 37.2 16.93 36.91 16.31 36.62 C15.51 36.25 14.71 35.87 13.89 35.49 C13.5 35.31 13.5 35.31 11.5 34.37 C9.14 33.49 9.14 33.49 5.14 33.49 C5.11 32.94 5.09 32.38 5.06 31.8 C4.34 22.07 0.2 15.17 -6.86 8.49 C-10.55 5.76 -14.27 4.05 -18.86 3.49 Z " fill="#392512" transform="translate(359.859375,581.5078125)"/>
<path d="M0 0 C4.06 0.52 6.14 1.6 9.12 4.38 C9.79 4.98 10.45 5.59 11.13 6.21 C12.78 7.79 14.4 9.38 16 11 C15.98 10.03 15.96 9.06 15.94 8.06 C16 5 16 5 17 4 C17.36 2.67 17.7 1.34 18 0 C22.18 12.54 20.85 26.03 15.44 37.88 C10.47 47.5 2.9 55.78 -6.88 60.62 C-7.68 61.03 -8.48 61.43 -9.3 61.85 C-18.95 65.96 -29.81 66.79 -39.81 63.38 C-53.98 57.35 -62.56 48.64 -69.07 34.7 C-71.95 26.94 -70.83 19.07 -70 11 C-69.67 12.32 -69.34 13.64 -69 15 C-68.53 14.75 -68.53 14.75 -66.12 13.5 C-63 12 -63 12 -61 12 C-61 11.34 -61 10.68 -61 10 C-59.68 9.67 -58.36 9.34 -57 9 C-57.01 9.79 -57.02 10.58 -57.03 11.39 C-56.75 21.41 -53.83 29.31 -47.3 37.01 C-41.8 42.12 -35.19 45.16 -27.69 45.56 C-19.58 45.21 -11.79 42.36 -6.06 36.5 C0.3 28.21 3.27 18.35 2 8 C1.48 5.25 0.81 2.69 0 0 Z " fill="#4D3016" transform="translate(714,603)"/>
<path d="M0 0 C-0.06 1.15 -0.12 2.3 -0.18 3.48 C-0.6 15.74 0.3 26.46 9 36 C11.44 37.77 11.44 37.77 14 39.25 C14.85 39.75 15.69 40.25 16.56 40.77 C22.76 43.9 30.02 44.01 36.7 42.32 C46.46 38.72 51.37 33.57 55.78 24.19 C57.56 19.55 58.44 14.93 59 10 C63.85 10.59 67.61 11.98 72 14 C72.33 12.02 72.66 10.04 73 8 C73.33 8 73.66 8 74 8 C75.05 23.1 71.66 35.12 62 47 C61.69 47.42 61.69 47.42 60.09 49.55 C52.82 58.06 41.32 62.22 30.45 63.38 C18.01 63.8 7.7 59.72 -2 52 C-12.78 41.39 -17.97 28.15 -18.25 13.19 C-18.27 9.18 -18.1 6.45 -16 3 C-15.67 3.5 -15.67 3.5 -14 6 C-12.95 5.22 -11.9 4.43 -10.81 3.62 C-3.36 -1.68 -3.36 -1.68 0 0 Z " fill="#4C2F16" transform="translate(306,605)"/>
<path d="M0 0 C0.33 1.32 0.66 2.64 1 4 C1.99 4 2.98 4 4 4 C4 3.34 4 2.68 4 2 C4.66 2 5.32 2 6 2 C5.98 2.59 5.98 2.59 5.86 5.55 C5.47 19.62 7.38 29.23 17 40 C17.52 40.62 18.05 41.23 18.59 41.87 C27.51 51.67 39.44 56.47 52.45 57.35 C67.31 57.99 80.52 55.08 92 45 C102.21 35.31 107.05 24.04 107.62 10.06 C107.66 9.28 107.7 8.5 107.74 7.7 C107.84 5.8 107.92 3.9 108 2 C108.33 2 108.66 2 109 2 C109.16 4.14 109.16 4.14 110 15 C110 10.38 110 5.76 110 1 C111.09 1.33 112.19 1.66 113.31 2 C117 3 117 3 120 3 C123.31 9.88 123.31 9.88 122 14 C111.5 36.4 100.73 52.27 77.52 62.04 C66.27 65.85 50.3 66.2 39.4 61.25 C38.61 60.84 37.82 60.43 37 60 C36.09 59.58 35.19 59.15 34.25 58.71 C21.47 52.35 13.41 42.13 5 31 C2.69 27.98 0.64 25.46 -2.5 23.31 C-3.07 22.92 -3.63 22.52 -4.22 22.11 C-6.09 20.94 -8.01 19.96 -10 19 C-9.81 18.73 -9.81 18.73 -8.83 17.38 C-4.96 11.84 -2.26 6.36 0 0 Z " fill="#322D2B" transform="translate(633,614)"/>
<path d="M0 0 C0.66 0.33 1.32 0.66 2 1 C1.58 1.35 1.15 1.71 0.71 2.07 C-8.25 10.21 -13.24 20.98 -14.25 32.91 C-14.76 45.72 -11.47 57.58 -4 68 C-3.28 69.05 -2.56 70.1 -1.81 71.19 C6.73 79.73 17.8 85.09 29.88 85.5 C42.6 85.07 54.67 80.72 63.51 71.34 C68.99 64.47 72.4 57.36 75 49 C75.2 48.35 75.4 47.71 75.61 47.04 C77.24 38.48 76.16 29.36 74 21 C79.56 25.44 81.43 35.26 82.46 42.05 C82.9 53.76 77.42 63.62 70.04 72.31 C59.09 84.03 45.05 89.84 29.14 90.47 C13.73 90.66 1.52 85.28 -9.81 74.81 C-20.12 64.01 -22.61 51.03 -22.31 36.68 C-21.71 24.18 -14.5 13.78 -6 5 C-4.05 3.24 -2.06 1.62 0 0 Z " fill="#E0C8AC" transform="translate(303,582)"/>
<path d="M0 0 C10.55 3.52 16.36 13.56 21.41 22.8 C21.93 23.86 22.46 24.91 23 26 C23.2 26.38 23.2 26.38 24.2 28.29 C27.41 39.13 26.14 54.05 21 64 C13.25 77.23 2.62 86.13 -12.25 90.3 C-26.87 93.02 -41.81 91.52 -54.75 83.88 C-65.91 76.17 -74.79 66.38 -78 53 C-79.17 42.19 -77.45 32.83 -73 23 C-72.34 22.67 -71.68 22.34 -71 22 C-71.16 22.96 -71.32 23.91 -71.48 24.89 C-73.66 40.3 -72.87 55.13 -63.49 68.04 C-63 68.69 -62.51 69.33 -62 70 C-61.26 71.05 -60.51 72.1 -59.75 73.19 C-51.59 81.53 -40.24 86.12 -28.69 86.56 C-17.62 86.24 -7.1 82.7 1 75 C1.66 74.38 2.33 73.75 3.01 73.11 C13.11 62.73 17.3 50.67 17.31 36.32 C17.02 21.21 9.71 10.89 0 0 Z " fill="#DDC4A7" transform="translate(716,581)"/>
<path d="M0 0 C-0.02 0.6 -0.04 1.21 -0.06 1.83 C-0.6 19.58 0.73 33.02 13.12 46.62 C23.63 56.6 35.91 60.53 50.04 60.42 C66.48 59.89 80.42 53.64 91.8 41.71 C95.23 37.49 97.7 32.91 100 28 C100.33 28.5 100.33 28.5 102 31 C100.24 36.56 97.31 40.58 93.5 44.94 C92.97 45.55 92.45 46.15 91.9 46.78 C87.18 52.08 82.01 56.21 76 60 C75.4 60.42 74.8 60.83 74.18 61.26 C62.69 68.72 46.32 68.63 33.25 66.34 C16.15 61.57 3.69 50.6 -5.15 35.43 C-7.75 30.61 -10.19 25.74 -12.55 20.8 C-14 18 -14 18 -16 16 C-15.57 13.12 -14.48 10.46 -13.44 7.75 C-13.3 7.4 -13.3 7.4 -12.62 5.61 C-12.42 5.08 -12.21 4.55 -12 4 C-11.01 4.99 -10.02 5.98 -9 7 C-8.6 6.49 -8.2 5.99 -7.79 5.47 C-7.26 4.82 -6.73 4.17 -6.19 3.5 C-5.93 3.18 -5.93 3.18 -4.61 1.53 C-3 0 -3 0 0 0 Z " fill="#302A28" transform="translate(282,611)"/>
<path d="M0 0 C3 2.44 3 2.44 5 5 C5.33 5.33 5.66 5.66 6 6 C6.4 11.88 5.7 14.72 3 20 C2.5 23.62 2.5 23.62 3 27 C5.61 29.65 7.3 30.88 10.98 31.53 C17.74 31.47 22.96 30.75 29.07 27.78 C29.39 27.65 29.39 27.65 31 27 C31.66 27.33 32.32 27.66 33 28 C28.47 34.7 20.69 39.73 13 42 C3.69 42.79 -2.32 42.18 -10.12 36.88 C-14.93 32.57 -16.72 27.67 -17.38 21.33 C-17.64 12.58 -17.06 7.67 -11.31 1.06 C-7.59 -0.65 -4.01 -0.79 0 0 Z " fill="#191714" transform="translate(546,667)"/>
<path d="M0 0 C3.34 0.05 4.64 0.25 7.62 1.94 C12.88 7.81 13.27 13.22 13.11 20.83 C12.62 25.63 11.25 29.22 8.75 33.31 C8.21 34.24 7.68 35.17 7.12 36.12 C1.3 41.49 -5.9 42.95 -13.64 42.64 C-20.11 41.83 -25.03 39.14 -30.25 35.31 C-30.69 34.99 -30.69 34.99 -32.94 33.38 C-35.36 31.22 -36.74 29.17 -38.25 26.31 C-34.95 27.39 -31.8 28.51 -28.62 29.94 C-23.29 31.94 -17.86 32.03 -12.25 31.31 C-8.52 29.41 -7.62 28.32 -6.19 24.44 C-6.25 21.31 -6.25 21.31 -8.19 18.5 C-10.56 14.83 -10.89 12.71 -10.72 8.43 C-9.96 5.02 -7.93 3.4 -5.25 1.31 C-3.69 -0.25 -2.16 0.07 0 0 Z " fill="#191714" transform="translate(480.25,666.6875)"/>
<path d="M0 0 C3.77 2.22 6.23 3.82 7.84 8.02 C8.3 12.73 8.34 15.02 6.21 19.27 C2.65 23.4 -0.18 25.74 -5.66 26.52 C-10.54 25.82 -13.51 23.84 -16.8 20.21 C-19.32 16.14 -18.88 11.63 -18.16 7.02 C-16.54 3.76 -14.21 1.79 -11.29 -0.36 C-7.27 -1.54 -3.88 -1.76 0 0 Z " fill="#F4F4F4" transform="translate(695.16015625,579.98046875)"/>
<path d="M0 0 C4.6 2.09 8.13 4.16 10 9 C10.48 14.22 9.92 17.61 7 22 C3.5 25.25 0.67 26.3 -4 26.56 C-9.28 26.36 -11.45 24.82 -15 21 C-17.69 16.96 -17.91 13.74 -17 9 C-13.05 2.19 -7.91 -0.92 0 0 Z " fill="#F3F3F2" transform="translate(332,579)"/>
<path d="M0 0 C10.55 3.52 16.36 13.56 21.41 22.8 C21.93 23.86 22.46 24.91 23 26 C23.39 26.76 23.79 27.51 24.2 28.29 C27.41 39.11 26.16 54.08 21 64 C18.18 68.65 15.17 73.43 11 77 C8.03 76.73 7.15 76.15 5 74 C5.36 70.66 6.88 68.49 8.81 65.81 C17 53.84 18.93 40.65 16.35 26.42 C13.4 15.8 7.22 8.1 0 0 Z " fill="#E3CBB1" transform="translate(716,581)"/>
<path d="M0 0 C1.44 0.91 2.88 1.82 4.31 2.75 C2.94 4.75 2.94 4.75 1.31 6.75 C0.65 6.75 -0.01 6.75 -0.69 6.75 C-1.35 8.4 -2.01 10.05 -2.69 11.75 C-3.27 11.4 -3.85 11.05 -4.45 10.69 C-8.99 8.05 -12.48 6.6 -17.69 5.75 C-19.81 3.81 -19.81 3.81 -21.69 1.75 C-25.24 -0.7 -28.46 -0.62 -32.69 -0.25 C-33.57 0.29 -34.46 0.82 -35.38 1.38 C-36.14 1.83 -36.9 2.28 -37.69 2.75 C-39.94 2.12 -39.94 2.12 -41.69 0.75 C-42.02 -0.24 -42.35 -1.23 -42.69 -2.25 C-43.68 -2.58 -44.67 -2.91 -45.69 -3.25 C-29.68 -10.16 -14.86 -8.76 0 0 Z " fill="#322111" transform="translate(357.6875,580.25)"/>
<path d="M0 0 C0.99 0.33 1.98 0.66 3 1 C3.01 1.88 3.02 2.77 3.03 3.68 C3.13 11.99 3.23 20.3 3.34 28.62 C3.39 32.89 3.45 37.16 3.5 41.44 C3.55 45.56 3.6 49.69 3.65 53.81 C3.67 55.38 3.69 56.96 3.71 58.53 C3.73 60.74 3.76 62.94 3.79 65.14 C3.81 66.4 3.83 67.65 3.84 68.94 C4 72 4 72 5 75 C4.36 76.35 3.69 77.68 3 79 C2.59 81.36 2.59 81.36 2.38 83.75 C2.3 84.55 2.23 85.35 2.15 86.17 C2.1 86.78 2.05 87.38 2 88 C1.34 88 0.68 88 0 88 C-0.06 87.37 -0.12 86.75 -0.18 86.1 C-0.23 85.69 -0.23 85.69 -0.44 83.62 C-0.52 82.81 -0.6 82 -0.68 81.16 C-1 79 -1 79 -2 77 C-2.07 75.11 -2.07 73.21 -2.04 71.32 C-2.02 70.13 -2 68.93 -1.99 67.71 C-1.96 66.41 -1.94 65.11 -1.91 63.77 C-1.89 62.42 -1.87 61.07 -1.85 59.72 C-1.8 56.87 -1.75 54.03 -1.7 51.18 C-1.64 47.58 -1.58 43.98 -1.53 40.38 C-1.48 37.58 -1.43 34.78 -1.39 31.98 C-1.35 30.02 -1.32 28.06 -1.29 26.1 C-1.13 17.37 -0.65 8.7 0 0 Z " fill="#24211E" transform="translate(510,671)"/>
<path d="M0 0 C0 9.57 0 19.14 0 29 C-1.32 28.34 -2.64 27.68 -4 27 C-4.33 27.99 -4.66 28.98 -5 30 C-5.33 30.99 -5.66 31.98 -6 33 C-6.55 31.94 -7.11 30.88 -7.68 29.79 C-8.41 28.4 -9.14 27.01 -9.88 25.62 C-10.24 24.93 -10.6 24.23 -10.98 23.51 C-13.77 18.23 -13.77 18.23 -16 16 C-15.57 13.12 -14.48 10.46 -13.44 7.75 C-13.3 7.4 -13.3 7.4 -12.62 5.61 C-12.42 5.08 -12.21 4.55 -12 4 C-11.01 4.99 -10.02 5.98 -9 7 C-8.6 6.49 -8.2 5.99 -7.79 5.47 C-7.26 4.82 -6.73 4.17 -6.19 3.5 C-5.93 3.18 -5.93 3.18 -4.61 1.53 C-3 0 -3 0 0 0 Z " fill="#2F2A28" transform="translate(282,611)"/>
<path d="M0 0 C0.66 0.99 1.32 1.98 2 3 C0.24 8.56 -2.69 12.58 -6.5 16.94 C-7.03 17.55 -7.55 18.15 -8.1 18.78 C-12.82 24.07 -17.99 28.23 -24 32 C-24.66 32.43 -25.32 32.86 -26 33.3 C-32.53 37.31 -38.52 38.26 -46 38 C-46 37.01 -46 36.02 -46 35 C-49.3 34.67 -52.6 34.34 -56 34 C-56 33.67 -56 33.34 -56 33 C-55.42 32.95 -55.42 32.95 -52.48 32.7 C-34.81 31.07 -20.66 26.66 -8.02 13.49 C-4.67 9.36 -2.28 4.79 0 0 Z " fill="#3E3835" transform="translate(382,639)"/>
<path d="M0 0 C0.33 1.32 0.66 2.64 1 4 C1.99 4 2.98 4 4 4 C4 3.34 4 2.68 4 2 C4.66 2 5.32 2 6 2 C5.96 2.68 5.93 3.35 5.89 4.05 C5.73 7.11 5.59 10.18 5.44 13.25 C5.38 14.31 5.33 15.38 5.27 16.47 C5.22 17.5 5.17 18.52 5.12 19.58 C5.07 20.52 5.03 21.46 4.98 22.43 C5 24.82 5.31 26.73 6 29 C1.64 26.61 -2.13 24.14 -6 21 C-7.32 20.31 -8.65 19.64 -10 19 C-9.81 18.73 -9.81 18.73 -8.83 17.38 C-4.96 11.84 -2.26 6.36 0 0 Z " fill="#36312E" transform="translate(633,614)"/>
<path d="M0 0 C10.55 3.52 16.36 13.56 21.41 22.8 C25.11 30.24 25.11 30.24 24.69 33.12 C24.57 33.43 24.57 33.43 24 35 C23.67 35.99 23.34 36.98 23 38 C22.5 38.16 22.5 38.16 20 39 C19.34 39.66 18.68 40.32 18 41 C17.9 39.95 17.8 38.9 17.7 37.82 C16.1 22.19 10.48 11.73 0 0 Z " fill="#D6BFA7" transform="translate(716,581)"/>
<path d="M0 0 C1.09 3.26 0.86 3.86 0 7 C-0.22 10.23 -0.19 13.45 -0.19 16.69 C-0.2 17.55 -0.21 18.41 -0.22 19.29 C-0.24 25.16 0.54 30.32 2 36 C1.01 35.67 0.02 35.34 -1 35 C-1 35.66 -1 36.32 -1 37 C-1.5 37.16 -1.5 37.16 -4 38 C-8.16 24.91 -6.17 13.37 -1 1 C-0.67 0.67 -0.34 0.34 0 0 Z " fill="#CEB69E" transform="translate(644,603)"/>
<path d="M0 0 C3.32 2.65 4.4 6.1 5.69 10 C5.91 10.67 6.13 11.34 6.35 12.02 C8.91 20.3 8.91 27.82 6 36 C1.25 37.12 1.25 37.12 -1 36 C-0.78 35.3 -0.57 34.59 -0.34 33.87 C2.88 22.44 2.97 11.5 0 0 Z " fill="#DFC5A9" transform="translate(377,603)"/>
<path d="M0 0 C4.44 2.17 8.73 4.52 13 7 C13.33 6.34 13.66 5.68 14 5 C15.18 8.67 15.07 12.17 15 16 C14.4 15.8 13.79 15.59 13.17 15.38 C12.37 15.11 11.57 14.84 10.75 14.56 C9.96 14.3 9.17 14.03 8.36 13.75 C6.26 13.08 4.13 12.53 2 12 C1.34 8.04 0.68 4.08 0 0 Z " fill="#412811" transform="translate(363,603)"/>
<path d="M0 0 C0.66 0.99 1.32 1.98 2 3 C0.22 8.66 -2.8 12.66 -6.69 17.06 C-7.22 17.67 -7.75 18.28 -8.3 18.91 C-12.04 23.12 -15.91 27.43 -21 30 C-21.99 30 -22.98 30 -24 30 C-24 28.68 -24 27.36 -24 26 C-22.09 24.36 -22.09 24.36 -19.5 22.75 C-10.25 16.58 -4.86 10.01 0 0 Z " fill="#39312F" transform="translate(382,639)"/>
<path d="M0 0 C1.5 2.25 2.72 4.32 3.91 6.72 C4.09 7.07 4.09 7.07 4.97 8.85 C5.33 9.58 5.69 10.31 6.06 11.06 C6.24 11.43 6.24 11.43 7.17 13.28 C7.84 14.64 8.51 16 9.18 17.35 C9.79 18.57 10.39 19.78 11 21 C8.69 21.66 6.38 22.32 4 23 C3.55 22.2 3.09 21.39 2.62 20.56 C1 18 1 18 -1 17 C-1.41 14.93 -1.41 14.93 -1.62 12.44 C-1.7 11.61 -1.77 10.78 -1.85 9.93 C-1.9 9.3 -1.95 8.66 -2 8 C-1.34 8 -0.68 8 0 8 C0 5.36 0 2.72 0 0 Z " fill="#332E2D" transform="translate(388,613)"/>
<path d="M0 0 C3.44 0.81 3.44 0.81 5.44 2.81 C5.11 3.8 4.78 4.79 4.44 5.81 C3.7 6.1 2.95 6.39 2.19 6.69 C-1.21 8.08 -3.02 10.2 -5.56 12.81 C-6.22 12.81 -6.88 12.81 -7.56 12.81 C-7.89 14.13 -8.22 15.45 -8.56 16.81 C-8.7 16.2 -8.83 15.58 -8.96 14.95 C-9.14 14.14 -9.32 13.33 -9.5 12.5 C-9.67 11.7 -9.85 10.9 -10.03 10.07 C-10.56 7.81 -10.56 7.81 -11.56 4.81 C-10.8 4.54 -10.04 4.28 -9.25 4 C-6.56 2.81 -6.56 2.81 -5.19 1.12 C-3.56 -0.19 -3.56 -0.19 0 0 Z " fill="#3E2917" transform="translate(711.5625,578.1875)"/>
<path d="M0 0 C4.28 0.7 6.29 1.49 9 5 C9 6.32 9 7.64 9 9 C8.01 9.33 7.02 9.66 6 10 C5.25 17.03 4.86 23.93 5 31 C4.34 31 3.68 31 3 31 C2.19 28.18 1.91 25.77 2 22.85 C2.06 17.98 1.59 13.26 1 8.44 C0.9 7.62 0.81 6.8 0.71 5.96 C0.48 3.97 0.24 1.99 0 0 Z " fill="#B5A99F" transform="translate(326,144)"/>
<path d="M0 0 C0.66 0.33 1.32 0.66 2 1 C1.58 1.35 1.15 1.71 0.71 2.07 C-7.41 9.45 -12.35 19.2 -14 30 C-18.88 27.25 -18.88 27.25 -20 25 C-15.3 14.95 -8.69 6.78 0 0 Z " fill="#D3BFA6" transform="translate(303,582)"/>
<path d="M0 0 C1.32 0 2.64 0 4 0 C4 0.66 4 1.32 4 2 C2.02 2.99 0.04 3.98 -2 5 C1.15 5.03 4.29 5.05 7.44 5.06 C7.88 5.07 7.88 5.07 10.1 5.09 C15.82 5.11 21.33 4.73 27 4 C27.16 4.66 27.16 4.66 28 8 C20.43 9 13.12 9 5.5 8.62 C4.42 8.58 3.33 8.54 2.22 8.49 C-5.73 8.13 -5.73 8.13 -8 7 C-8 6.34 -8 5.68 -8 5 C-2.25 2 -2.25 2 0 2 C0 1.34 0 0.68 0 0 Z " fill="#C2BAB1" transform="translate(919,401)"/>
<path d="M0 0 C0.33 0 0.66 0 1 0 C1.06 1.18 1.12 2.36 1.18 3.58 C1.27 5.14 1.35 6.69 1.44 8.25 C1.48 9.03 1.52 9.8 1.56 10.61 C1.58 10.98 1.58 10.98 1.68 12.89 C1.72 13.58 1.76 14.27 1.79 14.99 C2.01 17.07 2.45 18.99 3 21 C-1.84 18.39 -5.87 15.63 -10 12 C-9.34 11.67 -8.68 11.34 -8 11 C-8 10.34 -8 9.68 -8 9 C-5.09 6.96 -3.6 6 0 6 C0 4.02 0 2.04 0 0 Z " fill="#262221" transform="translate(636,622)"/>
<path d="M0 0 C1.32 0 2.64 0 4 0 C4 0.66 4 1.32 4 2 C3.34 2 2.68 2 2 2 C2.06 3.46 2.15 4.92 2.25 6.38 C2.27 6.78 2.27 6.78 2.39 8.84 C2.59 9.55 2.79 10.26 3 11 C3.65 11.32 4.31 11.64 4.98 11.98 C7 13 7 13 8 15.36 C8 18 8 18 6.35 20.24 C5.59 20.92 4.84 21.61 4.06 22.31 C3.31 23.01 2.56 23.71 1.79 24.43 C1.49 24.69 1.49 24.69 0 26 C-1.09 22.37 -0.75 19.47 -0.26 15.73 C0.24 10.5 0.07 5.25 0 0 Z " fill="#272221" transform="translate(384,619)"/>
<path d="M0 0 C10.22 -0.51 18.3 0.34 28 4 C27 5 27 5 22 10 C15.6 9.3 15.6 9.3 13 8 C13.33 5.69 13.66 3.38 14 1 C9.38 1 4.76 1 0 1 C0 0.67 0 0.34 0 0 Z " fill="#2E1E11" transform="translate(682,573)"/>
<path d="M0 0 C1.05 2.06 2.05 4.11 2.97 6.23 C5.77 12.39 9.31 16.92 14.01 21.77 C16.32 24.36 18 26.46 18 30 C13.75 28.43 11.35 25.22 8.56 21.81 C8.32 21.52 8.32 21.52 7.09 20.04 C3.87 16.15 0.83 12.19 -2 8 C-1.34 7.67 -0.68 7.34 0 7 C-0.19 6.4 -0.37 5.8 -0.56 5.19 C-1 3 -1 3 0 0 Z " fill="#3C3430" transform="translate(638,634)"/>
<path d="M0 0 C0.52 0.13 1.05 0.27 1.59 0.4 C9.99 2.32 18.42 2.62 27 3 C26.01 3.33 25.02 3.66 24 4 C24 4.99 24 5.98 24 7 C7.46 7.7 7.46 7.7 1 4 C0.23 1.89 0.23 1.89 0 0 Z " fill="#E6CEAF" transform="translate(670,665)"/>
<path d="M0 0 C0.62 0.08 0.62 0.08 3.78 0.46 C9.36 1.09 14.95 1.34 20.56 1.56 C21.57 1.61 22.58 1.65 23.62 1.69 C26.08 1.8 28.54 1.9 31 2 C31 2.66 31 3.32 31 4 C21.76 4 12.52 4 3 4 C3.33 5.98 3.66 7.96 4 10 C3.01 10 2.02 10 1 10 C-0.84 6.22 -1.16 4.05 0 0 Z " fill="#BEB4AB" transform="translate(77,405)"/>
<path d="M0 0 C6.65 9.98 6.4 22.84 6.44 34.38 C6.44 35.03 6.44 35.03 6.47 38.32 C6.46 39.54 6.45 40.76 6.43 42.02 C6.42 43.13 6.41 44.23 6.4 45.36 C6.27 46.23 6.14 47.1 6 48 C5.01 48.66 4.02 49.32 3 50 C3.01 49.57 3.01 49.57 3.05 47.39 C3.1 44.12 3.14 40.85 3.16 37.58 C3.18 36.18 3.2 34.78 3.23 33.38 C3.39 24.27 2.7 15.98 0.65 7.09 C0 4 0 4 0 0 Z " fill="#C4BBB5" transform="translate(394,227)"/>
<path d="M0 0 C2 2 2 2 2 5 C-4.66 8.63 -10.34 11.71 -18 12 C-18 11.34 -18 10.68 -18 10 C-18.99 9.67 -19.98 9.34 -21 9 C-20.15 8.77 -19.31 8.54 -18.44 8.3 C-11.51 6.31 -5.89 4.16 0 0 Z " fill="#DCC2A5" transform="translate(361,658)"/>
<path d="M0 0 C0.5 8.1 0.07 14.83 -4 22 C-5.64 23.78 -5.64 23.78 -7 25 C-7.28 19.28 -5.78 15.09 -3.78 9.8 C-2.99 6.97 -2.97 5.71 -4 3 C-5.98 3 -7.96 3 -10 3 C-7.28 0.28 -3.68 -1.84 0 0 Z " fill="#B8AEA5" transform="translate(956,352)"/>
<path d="M0 0 C4.75 1.19 4.75 1.19 7 4 C7 4.66 7 5.32 7 6 C6.01 6.33 5.02 6.66 4 7 C3.95 7.8 3.9 8.6 3.85 9.43 C3.62 13.06 3.37 16.69 3.12 20.31 C3.05 21.58 2.97 22.84 2.89 24.14 C2.8 25.35 2.72 26.56 2.63 27.8 C2.56 28.92 2.49 30.03 2.41 31.18 C2 34 2 34 0 37 C0 24.79 0 12.58 0 0 Z " fill="#B9AEA5" transform="translate(373,197)"/>
<path d="M0 0 C0.66 0 1.32 0 2 0 C2 11.88 2 23.76 2 36 C1.67 35.34 1.34 34.68 1 34 C0.67 33.86 0.67 33.86 -1 33.12 C-3 32 -3 32 -3.75 29.88 C-3.83 29.26 -3.91 28.64 -4 28 C-3.34 28.33 -2.68 28.66 -2 29 C-2 29.66 -2 30.32 -2 31 C-1.34 31 -0.68 31 0 31 C-0.33 30.34 -0.66 29.68 -1 29 C-1.1 27.42 -1.13 25.83 -1.13 24.24 C-1.13 23.28 -1.14 22.33 -1.14 21.35 C-1.13 20.34 -1.13 19.34 -1.12 18.31 C-1.13 17.33 -1.13 16.35 -1.14 15.34 C-1.13 10.12 -0.91 5.14 0 0 Z " fill="#C4BBB3" transform="translate(624,242)"/>
<path d="M0 0 C3.32 2.65 4.4 6.1 5.69 10 C5.91 10.66 6.13 11.33 6.36 12.01 C8.14 17.72 8.56 23.03 8 29 C7.67 29 7.34 29 7 29 C7 25.7 7 22.4 7 19 C6.34 19 5.68 19 5 19 C5 20.98 5 22.96 5 25 C4.34 25.33 3.68 25.66 3 26 C2.95 24.96 2.9 23.92 2.85 22.85 C2.45 15.08 1.88 7.58 0 0 Z " fill="#C1AE9B" transform="translate(377,603)"/>
<path d="M0 0 C0.33 1.32 0.66 2.64 1 4 C1.99 4 2.98 4 4 4 C4.95 6.17 5.14 7.56 4.4 9.82 C3.64 11.57 2.82 13.29 2 15 C1.34 15 0.68 15 0 15 C0 15.66 0 16.32 0 17 C-0.99 17 -1.98 17 -3 17 C-3.35 10.67 -2.29 5.9 0 0 Z " fill="#26211C" transform="translate(637,601)"/>
<path d="M0 0 C3 0.43 5.69 0.87 8.5 2.03 C13.48 3.41 18.24 3.21 23.38 3.12 C24.4 3.12 25.42 3.11 26.47 3.1 C28.98 3.07 31.49 3.04 34 3 C34.16 3.5 34.16 3.5 35 6 C33.02 6.99 31.04 7.98 29 9 C29.33 8.01 29.66 7.02 30 6 C29.49 6.02 29.49 6.02 26.89 6.11 C6.99 6.57 6.99 6.57 1.21 1.39 C0.81 0.93 0.41 0.47 0 0 Z " fill="#C8C1BA" transform="translate(192,801)"/>
<path d="M0 0 C0.66 0 1.32 0 2 0 C2 3.3 2 6.6 2 10 C1.01 10.33 0.02 10.66 -1 11 C-1 17.27 -1 23.54 -1 30 C0.65 29.67 2.3 29.34 4 29 C-0.62 33 -0.62 33 -4 33 C-4.16 26.22 -3.58 19.83 -2.56 13.12 C-2.43 12.19 -2.29 11.25 -2.15 10.29 C-1.63 6.73 -1.14 3.42 0 0 Z " fill="#BFB7AF" transform="translate(186,632)"/>
<path d="M0 0 C5.97 1.57 10.83 4.75 16 8 C15.67 8.66 15.34 9.32 15 10 C15.66 10.33 16.32 10.66 17 11 C17 11.66 17 12.32 17 13 C11.39 11.56 6.33 8.84 2 5 C0.73 2.3 0.73 2.3 0 0 Z " fill="#302A26" transform="translate(655,661)"/>
<path d="M0 0 C3.12 0.68 5.85 1.74 8.75 3.06 C9.55 3.42 10.35 3.79 11.17 4.16 C11.78 4.44 12.38 4.71 13 5 C12.67 5.66 12.34 6.32 12 7 C11.01 7.33 10.02 7.66 9 8 C9 8.99 9 9.98 9 11 C7.68 10.67 6.36 10.34 5 10 C5 9.01 5 8.02 5 7 C3.02 6.34 1.04 5.68 -1 5 C-1 2 -1 2 0 0 Z " fill="#342F2D" transform="translate(301,664)"/>
<path d="M0 0 C1.88 1.62 1.88 1.62 3 3 C2.34 3 1.68 3 1 3 C1.33 3.99 1.66 4.98 2 6 C-3.63 6.55 -6.39 4.95 -11 2 C-11 1.34 -11 0.68 -11 0 C-6.67 -2.29 -4.42 -2.02 0 0 Z " fill="#E2CAB0" transform="translate(315,663)"/>
<path d="M0 0 C2.64 0.52 5 0.63 7.69 0.61 C8.62 0.61 9.55 0.6 10.51 0.6 C10.99 0.6 10.99 0.6 13.42 0.58 C14.4 0.57 15.38 0.57 16.39 0.56 C18.8 0.55 21.2 0.53 23.61 0.51 C23.61 1.17 23.61 1.83 23.61 2.51 C18.7 2.56 13.79 2.6 8.88 2.62 C7.21 2.63 5.53 2.65 3.86 2.66 C1.46 2.69 -0.94 2.7 -3.34 2.71 C-4.09 2.72 -4.83 2.73 -5.6 2.74 C-9.36 2.74 -12.2 2.62 -15.39 0.51 C-13.33 0.32 -11.27 0.13 -9.2 -0.05 C-8.63 -0.1 -8.63 -0.1 -5.72 -0.37 C-2.39 -0.49 -2.39 -0.49 0 0 Z " fill="#C2B8AF" transform="translate(504.390625,969.486328125)"/>
<path d="M0 0 C0.33 0 0.66 0 1 0 C2.32 5.61 3.64 11.22 5 17 C4.34 17 3.68 17 3 17 C3 16.34 3 15.68 3 15 C0.36 15 -2.28 15 -5 15 C-5.17 14.17 -5.17 14.17 -6 10 C-4.35 9.34 -2.7 8.68 -1 8 C-0.67 5.36 -0.34 2.72 0 0 Z " fill="#D6BCA0" transform="translate(288,625)"/>
<path d="M0 0 C0 7.92 0 15.84 0 24 C-0.66 23.67 -1.32 23.34 -2 23 C-2.31 20.29 -2.51 17.66 -2.62 14.94 C-2.66 14.18 -2.7 13.42 -2.74 12.64 C-2.84 10.76 -2.92 8.88 -3 7 C-4.65 7 -6.3 7 -8 7 C-8 6.34 -8 5.68 -8 5 C-2.52 0 -2.52 0 0 0 Z " fill="#C6BDB6" transform="translate(650,197)"/>
<path d="M0 0 C4.29 0 8.58 0 13 0 C13 1.65 13 3.3 13 5 C10.12 5.96 8.3 6.11 5.31 6.06 C4.91 6.06 4.91 6.06 2.86 6.04 C2.56 6.03 2.56 6.03 1 6 C0 3 0 3 0 0 Z " fill="#3A2615" transform="translate(683,574)"/>
<path d="M0 0 C1.94 0.38 1.94 0.38 4 1 C4.33 1.66 4.66 2.32 5 3 C4.01 3.33 3.02 3.66 2 4 C1.63 14.12 2.33 23.43 4.34 33.36 C4.88 36.36 5.14 38.97 5 42 C-0.72 33.42 -0.4 22.69 -0.19 12.75 C-0.17 11.52 -0.16 10.28 -0.15 9.01 C-0.11 6.01 -0.06 3 0 0 Z " fill="#C6BEB6" transform="translate(53,213)"/>
</g>
</svg>